<?xml version="1.0" encoding="UTF-8"?>
<svg id="_圖層_2" data-name="圖層 2" xmlns="http://www.w3.org/2000/svg" width="50" height="50" xmlns:xlink="http://www.w3.org/1999/xlink" viewBox="0 0 50 50">
  <defs>
    <linearGradient id="_未命名漸層_119" data-name="未命名漸層 119" x1="42.09" y1="7.91" x2="7.91" y2="42.09" gradientUnits="userSpaceOnUse">
      <stop offset="0" stop-color="#f3f71e"/>
      <stop offset=".34" stop-color="#f4d81e"/>
      <stop offset="1" stop-color="#f7931e"/>
    </linearGradient>
  </defs>
  <g id="_圖層_2-2" data-name="圖層 2">
    <g id="a1">
      <g>
        <circle cx="25" cy="25" r="24.17" style="fill: url(#_未命名漸層_119); stroke-width: 0px;"/>
        <path d="M25,50C11.21,50,0,38.79,0,25S11.21,0,25,0s25,11.21,25,25-11.21,25-25,25ZM25,1.67C12.14,1.67,1.67,12.14,1.67,25s10.47,23.33,23.33,23.33,23.33-10.47,23.33-23.33S37.86,1.67,25,1.67Z" style="fill: #fff; stroke-width: 0px;"/>
      </g>
      <g>
        <path d="M17.64,28.63c-.91,3.55-2.06,6.84-3.43,9.85l-2.33-1.65c1.36-3.02,2.47-6.31,3.34-9.87l2.42,1.66ZM18.39,23.22l-1.74,2.27c-1.26-1.33-2.83-2.53-4.71-3.59l1.63-2.24c1.54.8,3.15,1.98,4.82,3.56ZM18.58,16.17l-1.87,2.11c-1.1-1.44-2.6-2.85-4.49-4.23l1.96-2.02c1.72,1.3,3.19,2.68,4.4,4.14ZM38.18,15.14h-6.57c-.23.68-.53,1.46-.91,2.36h6.58v11.13h-5.55v7.83c0,.71-.26,1.22-.77,1.55-.52.33-1.36.49-2.54.49-.54,0-1.05-.02-1.52-.06l-1.09-2.71c.71.05,1.38.07,2.02.07.59,0,.94-.05,1.05-.15.11-.1.16-.26.16-.47v-6.57h-5.51v-11.13h4.01c.27-.55.56-1.34.9-2.36h-6.48v10.25c0,5.27-1,9.72-2.99,13.34l-2.28-1.52c1.73-3.5,2.59-7.53,2.59-12.09v-12.49h18.91v2.5ZM27.56,30.94c-1.17,2.55-2.54,4.72-4.12,6.49l-2.21-1.81c1.5-1.63,2.77-3.65,3.8-6.07l2.53,1.38ZM34.65,21.87v-2.08h-8.47v2.08h8.47ZM34.65,26.27v-2.15h-8.47v2.15h8.47ZM38.61,35.74l-2.36,1.72c-.51-1.74-1.52-3.94-3.02-6.61l2.3-1.33c1.26,1.94,2.28,4.02,3.08,6.22Z" style="fill: #fff; stroke-width: 0px;"/>
        <g style="opacity: .53;">
          <path d="M17.64,28.63c-.91,3.55-2.06,6.84-3.43,9.85l-2.33-1.65c1.36-3.02,2.47-6.31,3.34-9.87l2.42,1.66ZM18.39,23.22l-1.74,2.27c-1.26-1.33-2.83-2.53-4.71-3.59l1.63-2.24c1.54.8,3.15,1.98,4.82,3.56ZM18.58,16.17l-1.87,2.11c-1.1-1.44-2.6-2.85-4.49-4.23l1.96-2.02c1.72,1.3,3.19,2.68,4.4,4.14ZM38.18,15.14h-6.57c-.23.68-.53,1.46-.91,2.36h6.58v11.13h-5.55v7.83c0,.71-.26,1.22-.77,1.55-.52.33-1.36.49-2.54.49-.54,0-1.05-.02-1.52-.06l-1.09-2.71c.71.05,1.38.07,2.02.07.59,0,.94-.05,1.05-.15.11-.1.16-.26.16-.47v-6.57h-5.51v-11.13h4.01c.27-.55.56-1.34.9-2.36h-6.48v10.25c0,5.27-1,9.72-2.99,13.34l-2.28-1.52c1.73-3.5,2.59-7.53,2.59-12.09v-12.49h18.91v2.5ZM27.56,30.94c-1.17,2.55-2.54,4.72-4.12,6.49l-2.21-1.81c1.5-1.63,2.77-3.65,3.8-6.07l2.53,1.38ZM34.65,21.87v-2.08h-8.47v2.08h8.47ZM34.65,26.27v-2.15h-8.47v2.15h8.47ZM38.61,35.74l-2.36,1.72c-.51-1.74-1.52-3.94-3.02-6.61l2.3-1.33c1.26,1.94,2.28,4.02,3.08,6.22Z" style="fill: none; stroke: #231815; stroke-linecap: round; stroke-linejoin: round; stroke-width: 1.48px;"/>
        </g>
        <path d="M17.64,28.63c-.91,3.55-2.06,6.84-3.43,9.85l-2.33-1.65c1.36-3.02,2.47-6.31,3.34-9.87l2.42,1.66ZM18.39,23.22l-1.74,2.27c-1.26-1.33-2.83-2.53-4.71-3.59l1.63-2.24c1.54.8,3.15,1.98,4.82,3.56ZM18.58,16.17l-1.87,2.11c-1.1-1.44-2.6-2.85-4.49-4.23l1.96-2.02c1.72,1.3,3.19,2.68,4.4,4.14ZM38.18,15.14h-6.57c-.23.68-.53,1.46-.91,2.36h6.58v11.13h-5.55v7.83c0,.71-.26,1.22-.77,1.55-.52.33-1.36.49-2.54.49-.54,0-1.05-.02-1.52-.06l-1.09-2.71c.71.05,1.38.07,2.02.07.59,0,.94-.05,1.05-.15.11-.1.16-.26.16-.47v-6.57h-5.51v-11.13h4.01c.27-.55.56-1.34.9-2.36h-6.48v10.25c0,5.27-1,9.72-2.99,13.34l-2.28-1.52c1.73-3.5,2.59-7.53,2.59-12.09v-12.49h18.91v2.5ZM27.56,30.94c-1.17,2.55-2.54,4.72-4.12,6.49l-2.21-1.81c1.5-1.63,2.77-3.65,3.8-6.07l2.53,1.38ZM34.65,21.87v-2.08h-8.47v2.08h8.47ZM34.65,26.27v-2.15h-8.47v2.15h8.47ZM38.61,35.74l-2.36,1.72c-.51-1.74-1.52-3.94-3.02-6.61l2.3-1.33c1.26,1.94,2.28,4.02,3.08,6.22Z" style="fill: #fff; stroke-width: 0px;"/>
      </g>
    </g>
  </g>
</svg>