<?xml version="1.0" encoding="UTF-8"?>
<svg id="_圖層_2" data-name="圖層 2" xmlns="http://www.w3.org/2000/svg" width="46.1" height="46.1" xmlns:xlink="http://www.w3.org/1999/xlink" viewBox="0 0 46.1 46.1">
  <defs>
    <linearGradient id="_未命名漸層_420" data-name="未命名漸層 420" x1="42.09" y1="4.01" x2="4.01" y2="42.09" gradientUnits="userSpaceOnUse">
      <stop offset="0" stop-color="#666"/>
      <stop offset=".6" stop-color="#474747"/>
      <stop offset="1" stop-color="#303030"/>
    </linearGradient>
  </defs>
  <g id="_圖層_2-2" data-name="圖層 2">
    <g id="a2">
      <g>
        <rect x=".83" y=".83" width="44.43" height="44.43" rx="10.85" ry="10.85" style="fill: url(#_未命名漸層_420); stroke-width: 0px;"/>
        <path d="M34.42,46.1H11.68c-6.44,0-11.68-5.24-11.68-11.68V11.68C0,5.24,5.24,0,11.68,0h22.74c6.44,0,11.68,5.24,11.68,11.68v22.74c0,6.44-5.24,11.68-11.68,11.68ZM11.68,1.67C6.16,1.67,1.67,6.16,1.67,11.68v22.74c0,5.52,4.49,10.01,10.01,10.01h22.74c5.52,0,10.01-4.49,10.01-10.01V11.68c0-5.52-4.49-10.01-10.01-10.01H11.68Z" style="fill: #fff; stroke-width: 0px;"/>
      </g>
      <g>
        <path d="M36.38,14.45H14.36v10.53c0,4.98-.69,8.87-2.08,11.66l-2.15-1.68c1.07-3.02,1.61-6.43,1.61-10.22v-12.68h10.56c-.06-.15-.32-.61-.78-1.38l2.71-.72c.42.68.79,1.38,1.09,2.11h11.06v2.39ZM24.71,17.87c-1.19,1.36-2.66,2.64-4.4,3.83h3.34v5.91h-5.01c-.03.51-.09,1.06-.18,1.64h5.07c.04,1.21.02,2.46-.05,3.76-.07,1.3-.34,2.14-.79,2.5-.45.37-.84.63-1.16.79-.32.16-1.89.24-4.71.24l-.78-2.31c1.49.08,2.56.12,3.21.12.75,0,1.24-.18,1.49-.54s.34-1.17.27-2.42h-5.32c.34-2.3.56-4.24.63-5.82h4.74v-1.69h-3.95v-.49c-.36.17-.86.37-1.49.6l-.99-2.02c1.36-.48,2.47-.96,3.31-1.44-.49-.41-1.18-.83-2.08-1.24l1.16-1.41h-1.36v-2.06h9v2.06ZM21.67,17.87h-4.08c1.02.58,1.8,1.07,2.33,1.47.69-.48,1.27-.97,1.75-1.47ZM36.5,34.79l-1.41,1.86c-2.08-1.34-3.51-2.19-4.29-2.56-1.55,1.04-3.44,1.93-5.67,2.67l-1.33-2.06c1.93-.55,3.44-1.15,4.52-1.81-1.11-.54-2.18-.99-3.23-1.35l1.06-1.56h-1.47v-2.12h10.16v2.12c-.67,1.01-1.4,1.88-2.21,2.59,1.28.65,2.56,1.39,3.86,2.24ZM36.78,21.51l-1.33,2.03c-.81-.27-1.56-.59-2.24-.94v1.41c0,.49.18.74.54.74h1.99v2.11h-2.95c-.54,0-1-.16-1.38-.47-.38-.31-.57-.78-.57-1.4v-1.38h-2.37c-.12,1.97-1.07,3.29-2.87,3.95l-1.36-1.66c1.48-.59,2.18-2.07,2.11-4.43h4.8c-2.51-1.57-4.3-3.53-5.37-5.88l2.12-.6c.33.59.75,1.19,1.24,1.81.65-.46,1.32-1.09,2.02-1.9l1.56,1.18c-.62.78-1.37,1.45-2.25,2.02.27.32.62.61,1.05.87.95-.79,1.69-1.48,2.21-2.08l1.64,1.21c-.29.38-1,1.04-2.12,1.96,1.03.63,2.21,1.12,3.53,1.47ZM32.06,29.96h-5.24c1.44.56,2.66,1.07,3.65,1.53.71-.53,1.24-1.04,1.59-1.53Z" style="fill: #fff; stroke-width: 0px;"/>
        <g style="opacity: .53;">
          <path d="M36.38,14.45H14.36v10.53c0,4.98-.69,8.87-2.08,11.66l-2.15-1.68c1.07-3.02,1.61-6.43,1.61-10.22v-12.68h10.56c-.06-.15-.32-.61-.78-1.38l2.71-.72c.42.68.79,1.38,1.09,2.11h11.06v2.39ZM24.71,17.87c-1.19,1.36-2.66,2.64-4.4,3.83h3.34v5.91h-5.01c-.03.51-.09,1.06-.18,1.64h5.07c.04,1.21.02,2.46-.05,3.76-.07,1.3-.34,2.14-.79,2.5-.45.37-.84.63-1.16.79-.32.16-1.89.24-4.71.24l-.78-2.31c1.49.08,2.56.12,3.21.12.75,0,1.24-.18,1.49-.54s.34-1.17.27-2.42h-5.32c.34-2.3.56-4.24.63-5.82h4.74v-1.69h-3.95v-.49c-.36.17-.86.37-1.49.6l-.99-2.02c1.36-.48,2.47-.96,3.31-1.44-.49-.41-1.18-.83-2.08-1.24l1.16-1.41h-1.36v-2.06h9v2.06ZM21.67,17.87h-4.08c1.02.58,1.8,1.07,2.33,1.47.69-.48,1.27-.97,1.75-1.47ZM36.5,34.79l-1.41,1.86c-2.08-1.34-3.51-2.19-4.29-2.56-1.55,1.04-3.44,1.93-5.67,2.67l-1.33-2.06c1.93-.55,3.44-1.15,4.52-1.81-1.11-.54-2.18-.99-3.23-1.35l1.06-1.56h-1.47v-2.12h10.16v2.12c-.67,1.01-1.4,1.88-2.21,2.59,1.28.65,2.56,1.39,3.86,2.24ZM36.78,21.51l-1.33,2.03c-.81-.27-1.56-.59-2.24-.94v1.41c0,.49.18.74.54.74h1.99v2.11h-2.95c-.54,0-1-.16-1.38-.47-.38-.31-.57-.78-.57-1.4v-1.38h-2.37c-.12,1.97-1.07,3.29-2.87,3.95l-1.36-1.66c1.48-.59,2.18-2.07,2.11-4.43h4.8c-2.51-1.57-4.3-3.53-5.37-5.88l2.12-.6c.33.59.75,1.19,1.24,1.81.65-.46,1.32-1.09,2.02-1.9l1.56,1.18c-.62.78-1.37,1.45-2.25,2.02.27.32.62.61,1.05.87.95-.79,1.69-1.48,2.21-2.08l1.64,1.21c-.29.38-1,1.04-2.12,1.96,1.03.63,2.21,1.12,3.53,1.47ZM32.06,29.96h-5.24c1.44.56,2.66,1.07,3.65,1.53.71-.53,1.24-1.04,1.59-1.53Z" style="fill: none; stroke: #231815; stroke-linecap: round; stroke-linejoin: round; stroke-width: 1.48px;"/>
        </g>
        <path d="M36.38,14.45H14.36v10.53c0,4.98-.69,8.87-2.08,11.66l-2.15-1.68c1.07-3.02,1.61-6.43,1.61-10.22v-12.68h10.56c-.06-.15-.32-.61-.78-1.38l2.71-.72c.42.68.79,1.38,1.09,2.11h11.06v2.39ZM24.71,17.87c-1.19,1.36-2.66,2.64-4.4,3.83h3.34v5.91h-5.01c-.03.51-.09,1.06-.18,1.64h5.07c.04,1.21.02,2.46-.05,3.76-.07,1.3-.34,2.14-.79,2.5-.45.37-.84.63-1.16.79-.32.16-1.89.24-4.71.24l-.78-2.31c1.49.08,2.56.12,3.21.12.75,0,1.24-.18,1.49-.54s.34-1.17.27-2.42h-5.32c.34-2.3.56-4.24.63-5.82h4.74v-1.69h-3.95v-.49c-.36.17-.86.37-1.49.6l-.99-2.02c1.36-.48,2.47-.96,3.31-1.44-.49-.41-1.18-.83-2.08-1.24l1.16-1.41h-1.36v-2.06h9v2.06ZM21.67,17.87h-4.08c1.02.58,1.8,1.07,2.33,1.47.69-.48,1.27-.97,1.75-1.47ZM36.5,34.79l-1.41,1.86c-2.08-1.34-3.51-2.19-4.29-2.56-1.55,1.04-3.44,1.93-5.67,2.67l-1.33-2.06c1.93-.55,3.44-1.15,4.52-1.81-1.11-.54-2.18-.99-3.23-1.35l1.06-1.56h-1.47v-2.12h10.16v2.12c-.67,1.01-1.4,1.88-2.21,2.59,1.28.65,2.56,1.39,3.86,2.24ZM36.78,21.51l-1.33,2.03c-.81-.27-1.56-.59-2.24-.94v1.41c0,.49.18.74.54.74h1.99v2.11h-2.95c-.54,0-1-.16-1.38-.47-.38-.31-.57-.78-.57-1.4v-1.38h-2.37c-.12,1.97-1.07,3.29-2.87,3.95l-1.36-1.66c1.48-.59,2.18-2.07,2.11-4.43h4.8c-2.51-1.57-4.3-3.53-5.37-5.88l2.12-.6c.33.59.75,1.19,1.24,1.81.65-.46,1.32-1.09,2.02-1.9l1.56,1.18c-.62.78-1.37,1.45-2.25,2.02.27.32.62.61,1.05.87.95-.79,1.69-1.48,2.21-2.08l1.64,1.21c-.29.38-1,1.04-2.12,1.96,1.03.63,2.21,1.12,3.53,1.47ZM32.06,29.96h-5.24c1.44.56,2.66,1.07,3.65,1.53.71-.53,1.24-1.04,1.59-1.53Z" style="fill: #fff; stroke-width: 0px;"/>
      </g>
    </g>
  </g>
</svg>