<?xml version="1.0" encoding="UTF-8"?>
<svg id="_圖層_2" data-name="圖層 2" xmlns="http://www.w3.org/2000/svg" width="50" height="50" xmlns:xlink="http://www.w3.org/1999/xlink" viewBox="0 0 50 50">
  <defs>
    <linearGradient id="_未命名漸層_332" data-name="未命名漸層 332" x1="42.09" y1="7.91" x2="7.91" y2="42.09" gradientUnits="userSpaceOnUse">
      <stop offset="0" stop-color="#b0d2ff"/>
      <stop offset="1" stop-color="#3085f2"/>
    </linearGradient>
  </defs>
  <g id="_圖層_2-2" data-name="圖層 2">
    <g id="a3">
      <g>
        <circle cx="25" cy="25" r="24.17" style="fill: url(#_未命名漸層_332); stroke-width: 0px;"/>
        <path d="M25,50C11.21,50,0,38.79,0,25S11.21,0,25,0s25,11.21,25,25-11.21,25-25,25ZM25,1.67C12.14,1.67,1.67,12.14,1.67,25s10.47,23.33,23.33,23.33,23.33-10.47,23.33-23.33S37.86,1.67,25,1.67Z" style="fill: #fff; stroke-width: 0px;"/>
      </g>
      <g>
        <path d="M37.87,17.1c-.21,1.73-.8,3.64-1.77,5.73l-2.41-.81c.45-.9.78-1.78.99-2.62h-9.7v1.27l7.72-.26.06,2.05-7.78.27v.4c0,.58.31.87.93.87h9.23v2.18h-10.1c-.74,0-1.36-.2-1.88-.6-.52-.4-.77-1.03-.77-1.91v-.82l-4.46.13-.06-2.06,4.52-.15v-1.35h-5.95v9.32c0,3.62-.83,6.91-2.47,9.85l-2.19-1.65c1.35-2.43,2.02-5.72,2.02-9.87v-9.96h9.2v-4.92h2.68v1.37h10.47v2.19h-10.47v1.35h12.21ZM38.44,35.89l-.81,2.44c-5.66.06-9.29-.02-10.87-.25-1.58-.23-3.07-.79-4.48-1.68-.99.79-2.43,1.6-4.31,2.44l-1.44-2.15c1.61-.57,2.88-1.19,3.8-1.87-.32-.34-.75-.84-1.27-1.5-.45.54-.83.95-1.15,1.24l-1.49-1.9c1.83-2.06,3.17-4.35,4.02-6.88l2.25.6c-.1.55-.26,1.04-.47,1.47h4.58v2.3c-.85,1.91-1.77,3.41-2.74,4.49.95.54,1.99.89,3.11,1.05,1.12.16,3.26.24,6.44.24,1.45,0,3.06-.02,4.83-.06ZM24.16,30.16h-2.99c-.14.32-.38.76-.72,1.3.42.65,1.01,1.26,1.75,1.84.9-1.11,1.56-2.15,1.96-3.14ZM38.03,31.13c-.08,1.45-.32,2.46-.71,3.02s-1.22.84-2.48.84c-1,0-1.72-.17-2.16-.52s-.66-.84-.66-1.5v-3.24h-1.38c-.06,2.49-.84,4.38-2.33,5.67l-1.99-1.41c1.23-1.03,1.84-2.63,1.84-4.79v-1.69h6.27v4.58c0,.42.2.63.6.63.33,0,.56-.16.67-.49s.17-.9.17-1.74l2.15.63Z" style="fill: #fff; stroke-width: 0px;"/>
        <g style="opacity: .53;">
          <path d="M37.87,17.1c-.21,1.73-.8,3.64-1.77,5.73l-2.41-.81c.45-.9.78-1.78.99-2.62h-9.7v1.27l7.72-.26.06,2.05-7.78.27v.4c0,.58.31.87.93.87h9.23v2.18h-10.1c-.74,0-1.36-.2-1.88-.6-.52-.4-.77-1.03-.77-1.91v-.82l-4.46.13-.06-2.06,4.52-.15v-1.35h-5.95v9.32c0,3.62-.83,6.91-2.47,9.85l-2.19-1.65c1.35-2.43,2.02-5.72,2.02-9.87v-9.96h9.2v-4.92h2.68v1.37h10.47v2.19h-10.47v1.35h12.21ZM38.44,35.89l-.81,2.44c-5.66.06-9.29-.02-10.87-.25-1.58-.23-3.07-.79-4.48-1.68-.99.79-2.43,1.6-4.31,2.44l-1.44-2.15c1.61-.57,2.88-1.19,3.8-1.87-.32-.34-.75-.84-1.27-1.5-.45.54-.83.95-1.15,1.24l-1.49-1.9c1.83-2.06,3.17-4.35,4.02-6.88l2.25.6c-.1.55-.26,1.04-.47,1.47h4.58v2.3c-.85,1.91-1.77,3.41-2.74,4.49.95.54,1.99.89,3.11,1.05,1.12.16,3.26.24,6.44.24,1.45,0,3.06-.02,4.83-.06ZM24.16,30.16h-2.99c-.14.32-.38.76-.72,1.3.42.65,1.01,1.26,1.75,1.84.9-1.11,1.56-2.15,1.96-3.14ZM38.03,31.13c-.08,1.45-.32,2.46-.71,3.02s-1.22.84-2.48.84c-1,0-1.72-.17-2.16-.52s-.66-.84-.66-1.5v-3.24h-1.38c-.06,2.49-.84,4.38-2.33,5.67l-1.99-1.41c1.23-1.03,1.84-2.63,1.84-4.79v-1.69h6.27v4.58c0,.42.2.63.6.63.33,0,.56-.16.67-.49s.17-.9.17-1.74l2.15.63Z" style="fill: none; stroke: #231815; stroke-linecap: round; stroke-linejoin: round; stroke-width: 1.48px;"/>
        </g>
        <path d="M37.87,17.1c-.21,1.73-.8,3.64-1.77,5.73l-2.41-.81c.45-.9.78-1.78.99-2.62h-9.7v1.27l7.72-.26.06,2.05-7.78.27v.4c0,.58.31.87.93.87h9.23v2.18h-10.1c-.74,0-1.36-.2-1.88-.6-.52-.4-.77-1.03-.77-1.91v-.82l-4.46.13-.06-2.06,4.52-.15v-1.35h-5.95v9.32c0,3.62-.83,6.91-2.47,9.85l-2.19-1.65c1.35-2.43,2.02-5.72,2.02-9.87v-9.96h9.2v-4.92h2.68v1.37h10.47v2.19h-10.47v1.35h12.21ZM38.44,35.89l-.81,2.44c-5.66.06-9.29-.02-10.87-.25-1.58-.23-3.07-.79-4.48-1.68-.99.79-2.43,1.6-4.31,2.44l-1.44-2.15c1.61-.57,2.88-1.19,3.8-1.87-.32-.34-.75-.84-1.27-1.5-.45.54-.83.95-1.15,1.24l-1.49-1.9c1.83-2.06,3.17-4.35,4.02-6.88l2.25.6c-.1.55-.26,1.04-.47,1.47h4.58v2.3c-.85,1.91-1.77,3.41-2.74,4.49.95.54,1.99.89,3.11,1.05,1.12.16,3.26.24,6.44.24,1.45,0,3.06-.02,4.83-.06ZM24.16,30.16h-2.99c-.14.32-.38.76-.72,1.3.42.65,1.01,1.26,1.75,1.84.9-1.11,1.56-2.15,1.96-3.14ZM38.03,31.13c-.08,1.45-.32,2.46-.71,3.02s-1.22.84-2.48.84c-1,0-1.72-.17-2.16-.52s-.66-.84-.66-1.5v-3.24h-1.38c-.06,2.49-.84,4.38-2.33,5.67l-1.99-1.41c1.23-1.03,1.84-2.63,1.84-4.79v-1.69h6.27v4.58c0,.42.2.63.6.63.33,0,.56-.16.67-.49s.17-.9.17-1.74l2.15.63Z" style="fill: #fff; stroke-width: 0px;"/>
      </g>
    </g>
  </g>
</svg>