<?xml version="1.0" encoding="UTF-8"?>
<svg id="_圖層_2" data-name="圖層 2" xmlns="http://www.w3.org/2000/svg" width="49.24" height="45.69" xmlns:xlink="http://www.w3.org/1999/xlink" viewBox="0 0 49.24 45.69">
  <defs>
    <linearGradient id="_未命名漸層_474" data-name="未命名漸層 474" x1="41.12" y1="6.34" x2="8.12" y2="39.35" gradientUnits="userSpaceOnUse">
      <stop offset="0" stop-color="#d9ffee"/>
      <stop offset=".58" stop-color="#c8e5cf"/>
      <stop offset="1" stop-color="#bbd1b6"/>
    </linearGradient>
  </defs>
  <g id="_圖層_2-2" data-name="圖層 2">
    <g id="a4">
      <g>
        <path d="M31.27.83h-13.3c-3.75,0-7.21,2-9.08,5.24l-6.65,11.52c-1.87,3.25-1.87,7.24,0,10.49l6.65,11.52c1.87,3.25,5.34,5.24,9.08,5.24h13.3c3.75,0,7.21-2,9.08-5.24l6.65-11.52c1.87-3.25,1.87-7.24,0-10.49l-6.65-11.52c-1.87-3.25-5.34-5.24-9.08-5.24Z" style="fill: url(#_未命名漸層_474); stroke-width: 0px;"/>
        <path d="M31.27,45.69h-13.3c-4.03,0-7.79-2.17-9.81-5.66L1.51,28.51c-2.02-3.49-2.02-7.83,0-11.32l6.65-11.52C10.18,2.17,13.94,0,17.97,0h13.3c4.03,0,7.79,2.17,9.81,5.66l6.65,11.52c2.02,3.49,2.02,7.83,0,11.32l-6.65,11.52c-2.02,3.49-5.77,5.66-9.81,5.66ZM17.97,1.67c-3.44,0-6.64,1.85-8.36,4.83l-6.65,11.52c-1.72,2.98-1.72,6.68,0,9.65l6.65,11.52c1.72,2.98,4.92,4.83,8.36,4.83h13.3c3.44,0,6.64-1.85,8.36-4.83l6.65-11.52c1.72-2.98,1.72-6.68,0-9.65l-6.65-11.52c-1.72-2.98-4.92-4.83-8.36-4.83h-13.3Z" style="fill: #fff; stroke-width: 0px;"/>
      </g>
      <g>
        <path d="M25.43,17.99h-13.87v-2.08h3.39l.66-2.15h-3.02v-2.08h3.59l.47-1.66,2.53.28-.38,1.38h5.07v4.23h1.56v2.08ZM25.43,28.87h-4.09v2.24h3.77v2.11h-3.77v3.33h-2.5v-3.33h-6.82l.78-4.34h-1.24v-2.11h7.28v-1.36h-5.86v-6.13h10.9v6.13h-2.53v1.36h4.09v2.11ZM18.83,31.11v-2.24h-3.5l-.38,2.24h3.89ZM21.28,23.3v-1.9h-5.67v1.9h5.67ZM21.34,15.91v-2.15h-3.11l-.57,2.15h3.68ZM37.46,10.93c0,4.11-.04,8.21-.13,12.28-.08,4.07-.24,7.5-.48,10.26-.07.78-.29,1.38-.67,1.83-.38.44-.8.74-1.28.9-.48.16-1.73.24-3.75.24l-.84-2.68c1,.04,1.91.06,2.71.06.32,0,.6-.07.82-.22s.36-.33.43-.54.15-1.6.26-4.17c.11-2.57.19-5.17.23-7.78.05-2.62.05-5.17.01-7.67h-2.8c.14,6.7-.19,11.59-.99,14.68-.8,3.09-2.3,5.96-4.51,8.62l-2.21-1.56c2.74-3.29,4.3-6.64,4.7-10.04-.94-1.85-2.22-3.76-3.83-5.73l1.81-2.05c.53.69,1.3,1.8,2.31,3.34.07-2.67.09-5.09.06-7.26h-3.95v-2.5h12.09Z" style="fill: #fff; stroke-width: 0px;"/>
        <g style="opacity: .53;">
          <path d="M25.43,17.99h-13.87v-2.08h3.39l.66-2.15h-3.02v-2.08h3.59l.47-1.66,2.53.28-.38,1.38h5.07v4.23h1.56v2.08ZM25.43,28.87h-4.09v2.24h3.77v2.11h-3.77v3.33h-2.5v-3.33h-6.82l.78-4.34h-1.24v-2.11h7.28v-1.36h-5.86v-6.13h10.9v6.13h-2.53v1.36h4.09v2.11ZM18.83,31.11v-2.24h-3.5l-.38,2.24h3.89ZM21.28,23.3v-1.9h-5.67v1.9h5.67ZM21.34,15.91v-2.15h-3.11l-.57,2.15h3.68ZM37.46,10.93c0,4.11-.04,8.21-.13,12.28-.08,4.07-.24,7.5-.48,10.26-.07.78-.29,1.38-.67,1.83-.38.44-.8.74-1.28.9-.48.16-1.73.24-3.75.24l-.84-2.68c1,.04,1.91.06,2.71.06.32,0,.6-.07.82-.22s.36-.33.43-.54.15-1.6.26-4.17c.11-2.57.19-5.17.23-7.78.05-2.62.05-5.17.01-7.67h-2.8c.14,6.7-.19,11.59-.99,14.68-.8,3.09-2.3,5.96-4.51,8.62l-2.21-1.56c2.74-3.29,4.3-6.64,4.7-10.04-.94-1.85-2.22-3.76-3.83-5.73l1.81-2.05c.53.69,1.3,1.8,2.31,3.34.07-2.67.09-5.09.06-7.26h-3.95v-2.5h12.09Z" style="fill: none; stroke: #231815; stroke-linecap: round; stroke-linejoin: round; stroke-width: 1.48px;"/>
        </g>
        <path d="M25.43,17.99h-13.87v-2.08h3.39l.66-2.15h-3.02v-2.08h3.59l.47-1.66,2.53.28-.38,1.38h5.07v4.23h1.56v2.08ZM25.43,28.87h-4.09v2.24h3.77v2.11h-3.77v3.33h-2.5v-3.33h-6.82l.78-4.34h-1.24v-2.11h7.28v-1.36h-5.86v-6.13h10.9v6.13h-2.53v1.36h4.09v2.11ZM18.83,31.11v-2.24h-3.5l-.38,2.24h3.89ZM21.28,23.3v-1.9h-5.67v1.9h5.67ZM21.34,15.91v-2.15h-3.11l-.57,2.15h3.68ZM37.46,10.93c0,4.11-.04,8.21-.13,12.28-.08,4.07-.24,7.5-.48,10.26-.07.78-.29,1.38-.67,1.83-.38.44-.8.74-1.28.9-.48.16-1.73.24-3.75.24l-.84-2.68c1,.04,1.91.06,2.71.06.32,0,.6-.07.82-.22s.36-.33.43-.54.15-1.6.26-4.17c.11-2.57.19-5.17.23-7.78.05-2.62.05-5.17.01-7.67h-2.8c.14,6.7-.19,11.59-.99,14.68-.8,3.09-2.3,5.96-4.51,8.62l-2.21-1.56c2.74-3.29,4.3-6.64,4.7-10.04-.94-1.85-2.22-3.76-3.83-5.73l1.81-2.05c.53.69,1.3,1.8,2.31,3.34.07-2.67.09-5.09.06-7.26h-3.95v-2.5h12.09Z" style="fill: #fff; stroke-width: 0px;"/>
      </g>
    </g>
  </g>
</svg>