<?xml version="1.0" encoding="UTF-8"?>
<svg id="_圖層_2" data-name="圖層 2" xmlns="http://www.w3.org/2000/svg" width="50" height="50" xmlns:xlink="http://www.w3.org/1999/xlink" viewBox="0 0 50 50">
  <defs>
    <linearGradient id="_未命名漸層_303" data-name="未命名漸層 303" x1="42.09" y1="7.91" x2="7.91" y2="42.09" gradientUnits="userSpaceOnUse">
      <stop offset="0" stop-color="#75ddff"/>
      <stop offset="1" stop-color="#04a9e0"/>
    </linearGradient>
  </defs>
  <g id="_圖層_2-2" data-name="圖層 2">
    <g id="a5">
      <g>
        <circle cx="25" cy="25" r="24.17" style="fill: url(#_未命名漸層_303); stroke-width: 0px;"/>
        <path d="M25,50C11.21,50,0,38.79,0,25S11.21,0,25,0s25,11.21,25,25-11.21,25-25,25ZM25,1.67C12.14,1.67,1.67,12.14,1.67,25s10.47,23.33,23.33,23.33,23.33-10.47,23.33-23.33S37.86,1.67,25,1.67Z" style="fill: #fff; stroke-width: 0px;"/>
      </g>
      <g>
        <path d="M38.24,31.37h-2.86v4.7c0,.6-.15,1.11-.44,1.54s-.67.72-1.13.87-1.39.23-2.78.23c-.81,0-1.57-.04-2.28-.13l-1-2.62c1.08.07,2.02.1,2.81.1.96,0,1.56-.06,1.79-.18.23-.12.35-.33.35-.61v-3.89h-15.26v7.2h-2.68v-7.2h-2.75v-2.47h2.75v-10.53h8.95v-2.92h-11.8v-2.44h26.24v2.44h-11.71v2.92h8.94v10.53h2.86v2.47ZM23.7,23.56v-2.78h-6.27v2.78h6.27ZM23.7,28.89v-2.87h-6.27v2.87h6.27ZM32.69,23.56v-2.78h-6.24v2.78h6.24ZM32.69,28.89v-2.87h-6.24v2.87h6.24Z" style="fill: #fff; stroke-width: 0px;"/>
        <g style="opacity: .53;">
          <path d="M38.24,31.37h-2.86v4.7c0,.6-.15,1.11-.44,1.54s-.67.72-1.13.87-1.39.23-2.78.23c-.81,0-1.57-.04-2.28-.13l-1-2.62c1.08.07,2.02.1,2.81.1.96,0,1.56-.06,1.79-.18.23-.12.35-.33.35-.61v-3.89h-15.26v7.2h-2.68v-7.2h-2.75v-2.47h2.75v-10.53h8.95v-2.92h-11.8v-2.44h26.24v2.44h-11.71v2.92h8.94v10.53h2.86v2.47ZM23.7,23.56v-2.78h-6.27v2.78h6.27ZM23.7,28.89v-2.87h-6.27v2.87h6.27ZM32.69,23.56v-2.78h-6.24v2.78h6.24ZM32.69,28.89v-2.87h-6.24v2.87h6.24Z" style="fill: none; stroke: #231815; stroke-linecap: round; stroke-linejoin: round; stroke-width: 1.48px;"/>
        </g>
        <path d="M38.24,31.37h-2.86v4.7c0,.6-.15,1.11-.44,1.54s-.67.72-1.13.87-1.39.23-2.78.23c-.81,0-1.57-.04-2.28-.13l-1-2.62c1.08.07,2.02.1,2.81.1.96,0,1.56-.06,1.79-.18.23-.12.35-.33.35-.61v-3.89h-15.26v7.2h-2.68v-7.2h-2.75v-2.47h2.75v-10.53h8.95v-2.92h-11.8v-2.44h26.24v2.44h-11.71v2.92h8.94v10.53h2.86v2.47ZM23.7,23.56v-2.78h-6.27v2.78h6.27ZM23.7,28.89v-2.87h-6.27v2.87h6.27ZM32.69,23.56v-2.78h-6.24v2.78h6.24ZM32.69,28.89v-2.87h-6.24v2.87h6.24Z" style="fill: #fff; stroke-width: 0px;"/>
      </g>
    </g>
  </g>
</svg>