<?xml version="1.0" encoding="utf-8"?>
<!-- Generator: Adobe Illustrator 19.2.1, SVG Export Plug-In . SVG Version: 6.00 Build 0)  -->
<svg version="1.1" id="圖層_1" xmlns="http://www.w3.org/2000/svg" xmlns:xlink="http://www.w3.org/1999/xlink" x="0px" y="0px"
	 width="100px" height="100px" viewBox="0 0 100 100" style="enable-background:new 0 0 100 100;" xml:space="preserve">
<style type="text/css">
	.st0{fill:#FFFFFF;}
</style>
<path class="st0" d="M21,53.9c8.5,4.2,12.7,11.5,17.5,15.1c-2.2,2.7-2,4.4-0.4,4.7c1.9,0.4,7.7,0.4,10-1.9c0.1-0.1,0.2-0.2,0.3-0.3
	c4-0.4,7.8-1.7,12.4-1.2c6.9,0.7,32.4,4.2,38.1-1.5c0,0-9.2,3.2-27.6-0.4c-12-2.3-17.4-1.4-21.5-1.2c-0.2-0.6-0.6-1.2-1.3-1.6
	c-1.5-0.8-3.5-1.3-6,0c-4.9-2.7-6-6.4-14.6-12c-9.4-6-20.2-8.5-25.4-17.7C2.3,35.9,6.6,46.8,21,53.9z"/>
</svg>
