<?xml version="1.0" encoding="UTF-8"?>
<svg id="_圖層_1" data-name="圖層 1" xmlns="http://www.w3.org/2000/svg" version="1.1" viewBox="0 0 28.7 32.4">
  <defs>
    <style>
      .cls-1 {
        fill: #fff;
        fill-rule: evenodd;
        stroke-width: 0px;
      }
    </style>
  </defs>
  <g id="book_download" data-name="book download">
    <g id="book_download-2" data-name="book download-2">
      <path id="_路径_6300-2" data-name="路径 6300-2" class="cls-1" d="M28.7,21.8h-3.7v5.8c0,.8-.7,1.4-1.5,1.4H5.2c-.8,0-1.4-.6-1.5-1.4v-5.8H0v5.8c0,2.8,2.4,4.9,5.2,4.9,0,0,0,0,0,0h18.4c2.8,0,5.1-2.1,5.2-4.8,0,0,0,0,0,0v-5.8h0ZM27.7,12.6l-13.1,12.3c-.1.1-.3.2-.5,0,0,0,0,0,0,0L1.1,12.6c-.1-.1-.2-.3,0-.4,0,0,0,0,0,0l2.9-2.8,8.2,7.8V.7c0-.4.3-.7.7-.7h3.1c.4,0,.7.3.7.6,0,0,0,0,0,0v16.5l8.2-7.8,2.9,2.8c.1.1.1.3,0,.5h0Z"/>
    </g>
  </g>
</svg>