<?xml version="1.0" encoding="UTF-8"?>
<svg id="_圖層_2" data-name="圖層 2" xmlns="http://www.w3.org/2000/svg" width="364.93" height="113.42" xmlns:xlink="http://www.w3.org/1999/xlink" viewBox="0 0 364.93 113.42">
  <defs>
    <filter id="drop-shadow-1" filterUnits="userSpaceOnUse">
      <feOffset dx="0" dy="0"/>
      <feGaussianBlur result="blur" stdDeviation="7"/>
      <feFlood flood-color="#000" flood-opacity=".75"/>
      <feComposite in2="blur" operator="in"/>
      <feComposite in="SourceGraphic"/>
    </filter>
    <linearGradient id="_新增漸層色票_1" data-name="新增漸層色票 1" x1="1.69" y1="54.96" x2="363.53" y2="54.96" gradientUnits="userSpaceOnUse">
      <stop offset="0" stop-color="#9af4cd"/>
      <stop offset=".4" stop-color="#81d5df"/>
      <stop offset="1" stop-color="#57a0ff"/>
    </linearGradient>
    <clipPath id="clippath">
      <circle cx="65.49" cy="16.15" r="15.18" style="fill: none; stroke-width: 0px;"/>
    </clipPath>
  </defs>
  <g id="_圖層_1-2" data-name="圖層 1">
    <g id="title_logo" style="filter: url(#drop-shadow-1);">
      <g>
        <g>
          <path d="M31.55,60.73h-3.42v5.87h-2.45v-1.49h-7.96v2.29c0,1.53-.46,2.09-1.46,2.46-1.03.36-2.75.4-5.51.4-.13-.63-.53-1.53-.86-2.09,1.99.07,3.98.03,4.54.03.63-.03.83-.23.83-.8v-2.29H4.54v-1.89h10.71v-2.49H1.69v-1.96h13.57v-2.32H4.84v-1.82h10.42v-2.32H5.77v-5.84h9.49v-1.92H2.32v-2.02h12.94v-2.65h2.46v2.65h13.2v2.02h-13.2v1.92h9.89v5.84h-9.89v2.32h10.42v4.15h3.42v1.96ZM15.26,50.58v-2.39h-7.13v2.39h7.13ZM17.71,48.19v2.39h7.43v-2.39h-7.43ZM17.71,58.78h7.96v-2.32h-7.96v2.32ZM25.68,60.73h-7.96v2.49h7.96v-2.49Z" style="fill: #fff; stroke-width: 0px;"/>
          <path d="M46.91,64.81c-2.39,1.79-6.73,3.48-10.18,4.28-.33-.6-1-1.39-1.49-1.86,3.42-.56,7.63-1.86,9.82-3.28l1.86.86ZM64.22,60.2v2.09h-13.3v7.86h-2.42v-7.86h-13.1v-2.09h13.1v-2.49h-9.98v-1.89h9.98v-2.39h-11.68v-1.99h7.17c-.33-.93-1-2.22-1.69-3.18l1.76-.46h-8.56v-2.06h5.34c-.5-1.33-1.63-3.32-2.65-4.81l2.09-.73c1.16,1.49,2.35,3.55,2.82,4.88l-1.66.66h4.05v-5.87h2.32v5.87h3.95v-5.87h2.36v5.87h4.01l-1.33-.43c.93-1.36,1.99-3.55,2.55-5.04l2.52.7c-.93,1.69-2.02,3.52-2.89,4.78h5.11v2.06h-8.62l2.16.6c-.76,1.09-1.56,2.22-2.29,3.05h7.6v1.99h-12.01v2.39h10.38v1.89h-10.38v2.49h13.3ZM44.69,47.79c.76,1.03,1.46,2.39,1.76,3.28l-1.36.36h9.16l-1.16-.36c.66-.93,1.49-2.32,1.96-3.28h-10.35ZM54.54,63.78c3.12,1.03,7.33,2.62,9.62,3.68l-1.53,1.56c-2.19-1.06-6.4-2.75-9.55-3.91l1.46-1.33Z" style="fill: #fff; stroke-width: 0px;"/>
          <path d="M82.64,62.46c-.4,4.38-.8,6.17-1.53,6.9-.53.53-1.09.66-1.92.73-.73.03-2.12.07-3.52-.03-.07-.6-.3-1.36-.6-1.92,1.39.17,2.75.17,3.28.17.5,0,.8-.03,1.03-.27.4-.43.73-1.73,1.06-4.71h-6.77c.56-1.63,1.09-3.98,1.49-5.87h5.67v-2.69h-4.18c-1.06.6-2.19,1.06-3.28,1.46-.2-.43-.66-1.06-1.06-1.49-.13,4.88-.76,11.08-2.99,15.46-.36-.46-1.36-1.19-1.86-1.46,2.39-4.81,2.59-11.58,2.59-16.39v-9.89h12.47c-.4-.63-.83-1.19-1.29-1.72l1.99-1.03c.76.8,1.53,1.86,2.06,2.75h12.54v2.06h-25.48v7.83c0,.7,0,1.46-.03,2.22,1.76-.6,3.52-1.39,5.04-2.46-.93-.7-2.12-1.53-3.18-2.09l1.39-1.16c1.06.56,2.39,1.36,3.28,2.02,1-.83,1.82-1.82,2.46-2.85h-6.5v-1.79h7.66l.36-.1,1.33.63c-1.03,2.55-2.75,4.64-4.88,6.27h3.55v6.14h-6.04c-.2.83-.4,1.62-.6,2.39h6.54l-.1.9ZM94.88,61.16c-.63,1.92-1.63,3.48-2.92,4.74,1.49.9,2.89,1.73,3.85,2.46l-1.39,1.56c-1-.76-2.42-1.73-4.01-2.65-1.96,1.43-4.35,2.36-6.97,2.95-.2-.5-.6-1.23-1.03-1.66,2.29-.43,4.48-1.23,6.27-2.35-1.56-.86-3.15-1.73-4.61-2.42l1.29-1.26h-1.73v-1.76h9.65l.37-.07,1.23.46ZM97.04,49.69c-1.09.86-2.42,1.66-3.65,2.32,1.53.93,3.22,1.66,5.11,2.12-.5.43-1.09,1.23-1.39,1.79-1.69-.53-3.28-1.23-4.68-2.12v3.38c0,.66.03.86.46.86h1.66c.33,0,1-.03,1.36-.13.03.5.1,1.16.17,1.66-.33.1-.96.13-1.49.13h-1.96c-1.82,0-2.19-.73-2.19-2.55v-2.32h-3.32v.6c0,1.69-.46,3.65-2.75,5.04-.27-.43-1.03-1.16-1.43-1.43,1.96-1.1,2.22-2.42,2.22-3.68v-2.36h6.1c-2.39-1.82-4.18-4.18-5.34-7.07l1.79-.46c.4.93.93,1.79,1.53,2.65,1.09-.76,2.32-1.69,3.08-2.32l1.59,1.03c-1.13.93-2.49,1.83-3.72,2.49.53.6,1.13,1.13,1.73,1.63,1.23-.7,2.62-1.66,3.45-2.29l1.66,1.03ZM85.56,62.52c1.49.7,3.15,1.56,4.71,2.46.8-.73,1.43-1.53,1.96-2.46h-6.67Z" style="fill: #fff; stroke-width: 0px;"/>
          <path d="M117.27,60.67h13.47v2.02h-13.47v7.36h-2.46v-7.36h-13.3v-2.02h13.3v-1.99h-8.23v-4.35h-5.11v-1.92h5.11v-2.12h2.29v2.12h6v-2.36h2.29v2.36h6.14v-2.12h2.39v2.12h5.01v1.92h-5.01v4.35h-8.43v1.99ZM130.81,42.52v2.02h-8.56c2.39,1.36,5.17,3.08,6.77,4.21l-1.62,1.46c-.63-.5-1.43-1.06-2.32-1.66-18.11.83-19.8.89-20.93,1.29-.1-.5-.46-1.66-.73-2.29.83-.1,1.79-.6,3.05-1.33.53-.3,1.53-.9,2.75-1.69h-7.63v-2.02h10.52c1.23-.9,2.42-1.89,3.52-2.92l2.72.83c-.86.73-1.73,1.43-2.62,2.09h15.09ZM110.9,64.08c-1.59,2.16-4.21,4.21-6.54,5.51-.43-.46-1.39-1.23-1.99-1.63,2.35-1.13,4.74-2.82,6.1-4.61l2.42.73ZM122.48,46.87c-.93-.53-1.82-1.06-2.69-1.53l1-.8h-7.9c-1.59,1.09-3.22,2.09-4.78,2.92l14.36-.6ZM108.88,56.78h6v-2.46h-6v2.46ZM117.17,54.33v2.46h6.14v-2.46h-6.14ZM123.11,63.12c2.35,1.33,5.34,3.35,6.87,4.71l-1.92,1.53c-1.46-1.36-4.38-3.48-6.77-4.91l1.82-1.33Z" style="fill: #fff; stroke-width: 0px;"/>
          <path d="M142.42,58.08v12.08h-2.29v-11.34c-1.96.6-3.85,1.19-5.47,1.69l-.66-2.36c1.69-.46,3.81-1.03,6.14-1.76v-7.4h-3.02c-.4,1.86-.86,3.55-1.46,4.91-.43-.3-1.36-.9-1.89-1.09,1.26-2.82,1.89-7,2.29-11.05l2.16.37c-.17,1.49-.4,3.02-.63,4.48h2.55v-6.73h2.29v6.73h3.38v2.39h-3.38v6.77l3.85-1.19.33,2.19-4.18,1.33ZM164.12,45.37s0,.96-.03,1.26c-.73,15.03-1.46,20.17-2.79,21.83-.63.86-1.29,1.16-2.29,1.26-.9.13-2.32.1-3.78,0-.03-.73-.27-1.76-.7-2.42,1.49.13,2.82.17,3.48.17.53,0,.86-.13,1.23-.56,1.06-1.16,1.79-6.07,2.45-19.21h-1.59c-1.66,8.69-5.31,17.52-10.81,21.89-.46-.53-1.33-1.13-2.06-1.49,5.44-3.92,9.02-12.08,10.75-20.4h-2.72c-1.49,5.67-4.54,11.88-8.16,15.03-.46-.5-1.26-1.06-1.96-1.43,3.52-2.75,6.47-8.29,7.99-13.6h-2.85c-1.09,2.42-2.36,4.61-3.78,6.3-.4-.4-1.39-1.09-1.89-1.43,2.72-2.95,4.71-7.73,5.81-12.74l2.26.46c-.4,1.76-.9,3.45-1.46,5.08h12.9Z" style="fill: #fff; stroke-width: 0px;"/>
          <path d="M173.34,54.73c-1.29-1.13-3.88-2.69-6-3.65l1.33-1.86c2.06.9,4.74,2.35,6.04,3.45l-1.36,2.06ZM176.23,59.04c-1.76,3.48-4.08,7.6-6,10.65l-2.06-1.66c1.76-2.52,4.34-6.87,6.27-10.62l1.79,1.63ZM174.37,46.24c-1.09-1.26-3.55-3.09-5.57-4.25l1.46-1.73c1.99,1.06,4.44,2.79,5.61,4.05l-1.49,1.92ZM179.35,55.42h2.26v3.48c0,3.62-.53,7.89-4.74,11.11-.36-.53-1.19-1.29-1.76-1.62,3.81-2.85,4.25-6.54,4.25-9.55v-3.42ZM195.23,55.32c-.43-.66-1.06-1.53-1.73-2.42-13.37.89-14.93.99-15.89,1.39-.13-.5-.53-1.69-.76-2.32.66-.13,1.46-.96,2.42-2.09.53-.56,1.53-1.86,2.72-3.52h-5.64v-2.22h7.1c.9-1.33,1.72-2.79,2.49-4.21l2.42.96c-.63,1.1-1.33,2.19-2.06,3.25h10.71v2.22h-12.24c-1.36,1.89-2.75,3.68-4.18,5.21l11.34-.66c-.8-1.03-1.63-2.06-2.39-2.92l1.86-1.06c1.96,2.19,4.54,5.27,5.84,7.1l-2.02,1.29ZM185.15,55.62h2.22v13.07h-2.22v-13.07ZM195.8,67.5c.43,0,1.09-.03,1.49-.17.03.6.1,1.39.13,1.92-.33.13-.96.13-1.59.13h-2.16c-2.19,0-2.62-.86-2.62-3.15v-10.81h2.29v10.85c0,.96.1,1.23.56,1.23h1.89Z" style="fill: #fff; stroke-width: 0px;"/>
          <path d="M229.01,66.84c0,1.62-.37,2.46-1.53,2.85-1.19.4-3.22.43-6.2.43-.13-.7-.53-1.86-.9-2.52,2.39.1,4.68.1,5.37.07.6-.03.8-.2.8-.83v-18.91h-21.69v22.19h-2.42v-24.58h9.06c.83-1.79,1.69-4.08,2.12-5.77l3.02.53c-.73,1.76-1.59,3.65-2.42,5.24h14.79v21.3ZM211.46,63.22v2.36h-2.26v-13.27h12.87v10.91h-10.62ZM211.46,54.53v6.47h8.33v-6.47h-8.33Z" style="fill: #fff; stroke-width: 0px;"/>
          <path d="M244.6,41.59c-1.86,5.64-5.14,10.35-9.02,13.47-.43-.5-1.46-1.43-2.06-1.83,3.91-2.72,6.93-7.1,8.53-12.27l2.55.63ZM259.06,52.31s-.03.86-.07,1.19c-.46,10.18-.93,14-2.06,15.26-.7.83-1.39,1.06-2.59,1.2-1.06.1-3.15.03-5.21-.07-.03-.76-.33-1.76-.8-2.49,2.16.2,4.18.23,4.98.23.7,0,1.06-.07,1.39-.43.86-.83,1.33-4.15,1.72-12.51h-8.56c-.86,6.57-3.02,12.54-11.44,15.62-.3-.66-1-1.63-1.59-2.16,7.79-2.62,9.62-7.86,10.42-13.47h-6.77v-2.39h20.57ZM254.85,40.43c1.66,5.21,5.21,9.95,9.42,12.34-.53.53-1.33,1.53-1.76,2.22-4.11-2.65-7.53-7.3-9.42-12.24h-5.87v-2.32h7.63Z" style="fill: #fff; stroke-width: 0px;"/>
          <path d="M277.81,59.04c-.56-1.16-1.86-3.25-2.99-5.01v16.09h-2.39v-15.66c-1.23,3.71-2.85,7.3-4.54,9.52-.27-.66-.9-1.63-1.29-2.22,2.19-2.75,4.48-7.93,5.57-12.47h-4.68v-2.36h4.94v-7.1h2.39v7.1h4.84v2.36h-4.84v1.69c1.16,1.39,3.91,5.11,4.58,6.1l-1.59,1.96ZM296.98,53.47h-4.81v16.69h-2.42v-16.69h-6.04v.17c0,4.94-.46,11.88-3.58,16.45-.43-.4-1.46-1.06-2.02-1.26,2.99-4.41,3.28-10.58,3.28-15.19v-10.15c4.18-.76,8.92-2.02,11.61-3.25l2.09,1.92c-3.08,1.26-7.4,2.32-11.38,3.05v5.91h13.27v2.36Z" style="fill: #fff; stroke-width: 0px;"/>
          <path d="M310.62,61.76c-1.99,2.62-4.91,5.31-7.4,7.03-.46-.43-1.49-1.23-2.12-1.59,2.59-1.59,5.37-3.98,7.07-6.3l2.46.86ZM316.72,59.07v8.06c0,1.39-.3,2.09-1.39,2.46-1.03.4-2.72.43-5.14.43-.1-.7-.53-1.76-.93-2.42,1.99.1,3.78.1,4.31.03.56-.03.66-.13.66-.53v-7.83c-9.02.66-10.35.86-11.28,1.23-.1-.53-.46-1.69-.73-2.36,1.09-.13,2.55-.66,4.54-1.59,1.26-.53,4.08-1.96,7.3-3.81-7.46.43-8.59.6-9.29.83-.13-.46-.46-1.69-.76-2.32.76-.07,1.59-.43,2.69-1.03,1.19-.56,4.88-2.75,7.66-5.21-3.95,1.03-8.13,1.89-12.08,2.59-.13-.63-.43-1.49-.73-2.06,7.43-1.36,15.92-3.42,20.63-5.64l1.82,1.92c-2.65,1.19-5.97,2.22-9.55,3.18l2.09,1.33c-2.22,1.72-4.64,3.32-7,4.58l8.13-.43c1.33-.8,2.59-1.69,3.78-2.59l1.92,1.62c-4.51,3.19-9.19,5.77-13.8,7.86l14.13-.93c-1.06-1.16-2.16-2.29-3.15-3.25l1.99-1.03c2.52,2.26,5.37,5.31,6.77,7.26l-2.09,1.29c-.46-.66-1.09-1.46-1.76-2.32l-8.76.66ZM321.63,60.6c2.62,1.92,5.91,4.71,7.6,6.47l-2.06,1.46c-1.59-1.76-4.81-4.64-7.46-6.67l1.92-1.26Z" style="fill: #fff; stroke-width: 0px;"/>
          <path d="M336.5,61.4c-.33,2.82-.96,5.94-1.66,7.99-.4-.23-1.39-.56-1.89-.73.76-2.06,1.26-4.98,1.59-7.63l1.96.37ZM343.27,59.47c-.1-.5-.23-1.06-.4-1.69-7.3,1.19-8.29,1.46-8.92,1.82-.1-.5-.5-1.66-.76-2.29.7-.17,1.46-1,2.45-2.22.53-.6,1.56-1.96,2.72-3.72-3.48.43-4.18.56-4.61.8-.13-.5-.53-1.66-.76-2.29.53-.13,1.13-.8,1.79-1.79.76-.96,3.12-4.78,4.51-8.36l2.26.96c-1.53,3.18-3.42,6.44-5.31,8.99l3.48-.33c.93-1.49,1.86-3.12,2.65-4.74l2.06,1.26c-2.16,3.88-4.78,7.79-7.53,10.88l5.41-.76c-.4-1.09-.8-2.19-1.26-3.15l1.79-.66c1.03,2.12,1.99,4.88,2.35,6.57l-1.92.73ZM339.91,60.86c.4,2.22.8,5.08.9,6.97l-1.96.46c-.07-1.89-.4-4.81-.8-7.03l1.86-.4ZM343.46,66.6c-.3-1.59-1.06-4.11-1.76-6l1.72-.56c.76,1.92,1.56,4.35,1.89,5.97l-1.86.6ZM360.45,67.37c.7,0,.83-.63.9-4.38.56.43,1.49.76,2.19.96-.23,4.45-.83,5.61-2.85,5.61h-2.82c-2.32,0-2.89-.73-2.89-3.19v-11.61l-3.12.36c-.27,7.83-1.26,12.44-7.1,15.16-.27-.63-.93-1.49-1.49-1.92,5.21-2.22,6-6.1,6.2-12.94-2.16.3-2.79.46-3.25.66-.17-.53-.53-1.76-.86-2.46.66-.17,1.39-1.06,2.29-2.42.53-.73,1.63-2.55,2.85-4.84h-4.91v-2.32h6.04c.66-1.36,1.29-2.79,1.83-4.18l2.65.8c-.5,1.13-1.06,2.29-1.62,3.38h8.56v2.32h-9.75c-1.36,2.49-2.79,4.84-4.25,6.8l9.75-.93c-.73-1.26-1.49-2.55-2.22-3.68l2.02-.86c1.69,2.49,3.75,5.87,4.64,7.96l-2.19,1.06c-.3-.73-.7-1.59-1.19-2.52l-2.52.27v11.88c0,.86.1,1.03.83,1.03h2.29Z" style="fill: #fff; stroke-width: 0px;"/>
        </g>
        <g>
          <path d="M31.55,60.73h-3.42v5.87h-2.45v-1.49h-7.96v2.29c0,1.53-.46,2.09-1.46,2.46-1.03.36-2.75.4-5.51.4-.13-.63-.53-1.53-.86-2.09,1.99.07,3.98.03,4.54.03.63-.03.83-.23.83-.8v-2.29H4.54v-1.89h10.71v-2.49H1.69v-1.96h13.57v-2.32H4.84v-1.82h10.42v-2.32H5.77v-5.84h9.49v-1.92H2.32v-2.02h12.94v-2.65h2.46v2.65h13.2v2.02h-13.2v1.92h9.89v5.84h-9.89v2.32h10.42v4.15h3.42v1.96ZM15.26,50.58v-2.39h-7.13v2.39h7.13ZM17.71,48.19v2.39h7.43v-2.39h-7.43ZM17.71,58.78h7.96v-2.32h-7.96v2.32ZM25.68,60.73h-7.96v2.49h7.96v-2.49Z" style="fill: url(#_新增漸層色票_1); stroke-width: 0px;"/>
          <path d="M46.91,64.81c-2.39,1.79-6.73,3.48-10.18,4.28-.33-.6-1-1.39-1.49-1.86,3.42-.56,7.63-1.86,9.82-3.28l1.86.86ZM64.22,60.2v2.09h-13.3v7.86h-2.42v-7.86h-13.1v-2.09h13.1v-2.49h-9.98v-1.89h9.98v-2.39h-11.68v-1.99h7.17c-.33-.93-1-2.22-1.69-3.18l1.76-.46h-8.56v-2.06h5.34c-.5-1.33-1.63-3.32-2.65-4.81l2.09-.73c1.16,1.49,2.35,3.55,2.82,4.88l-1.66.66h4.05v-5.87h2.32v5.87h3.95v-5.87h2.36v5.87h4.01l-1.33-.43c.93-1.36,1.99-3.55,2.55-5.04l2.52.7c-.93,1.69-2.02,3.52-2.89,4.78h5.11v2.06h-8.62l2.16.6c-.76,1.09-1.56,2.22-2.29,3.05h7.6v1.99h-12.01v2.39h10.38v1.89h-10.38v2.49h13.3ZM44.69,47.79c.76,1.03,1.46,2.39,1.76,3.28l-1.36.36h9.16l-1.16-.36c.66-.93,1.49-2.32,1.96-3.28h-10.35ZM54.54,63.78c3.12,1.03,7.33,2.62,9.62,3.68l-1.53,1.56c-2.19-1.06-6.4-2.75-9.55-3.91l1.46-1.33Z" style="fill: url(#_新增漸層色票_1); stroke-width: 0px;"/>
          <path d="M82.64,62.46c-.4,4.38-.8,6.17-1.53,6.9-.53.53-1.09.66-1.92.73-.73.03-2.12.07-3.52-.03-.07-.6-.3-1.36-.6-1.92,1.39.17,2.75.17,3.28.17.5,0,.8-.03,1.03-.27.4-.43.73-1.73,1.06-4.71h-6.77c.56-1.63,1.09-3.98,1.49-5.87h5.67v-2.69h-4.18c-1.06.6-2.19,1.06-3.28,1.46-.2-.43-.66-1.06-1.06-1.49-.13,4.88-.76,11.08-2.99,15.46-.36-.46-1.36-1.19-1.86-1.46,2.39-4.81,2.59-11.58,2.59-16.39v-9.89h12.47c-.4-.63-.83-1.19-1.29-1.72l1.99-1.03c.76.8,1.53,1.86,2.06,2.75h12.54v2.06h-25.48v7.83c0,.7,0,1.46-.03,2.22,1.76-.6,3.52-1.39,5.04-2.46-.93-.7-2.12-1.53-3.18-2.09l1.39-1.16c1.06.56,2.39,1.36,3.28,2.02,1-.83,1.82-1.82,2.46-2.85h-6.5v-1.79h7.66l.36-.1,1.33.63c-1.03,2.55-2.75,4.64-4.88,6.27h3.55v6.14h-6.04c-.2.83-.4,1.62-.6,2.39h6.54l-.1.9ZM94.88,61.16c-.63,1.92-1.63,3.48-2.92,4.74,1.49.9,2.89,1.73,3.85,2.46l-1.39,1.56c-1-.76-2.42-1.73-4.01-2.65-1.96,1.43-4.35,2.36-6.97,2.95-.2-.5-.6-1.23-1.03-1.66,2.29-.43,4.48-1.23,6.27-2.35-1.56-.86-3.15-1.73-4.61-2.42l1.29-1.26h-1.73v-1.76h9.65l.37-.07,1.23.46ZM97.04,49.69c-1.09.86-2.42,1.66-3.65,2.32,1.53.93,3.22,1.66,5.11,2.12-.5.43-1.09,1.23-1.39,1.79-1.69-.53-3.28-1.23-4.68-2.12v3.38c0,.66.03.86.46.86h1.66c.33,0,1-.03,1.36-.13.03.5.1,1.16.17,1.66-.33.1-.96.13-1.49.13h-1.96c-1.82,0-2.19-.73-2.19-2.55v-2.32h-3.32v.6c0,1.69-.46,3.65-2.75,5.04-.27-.43-1.03-1.16-1.43-1.43,1.96-1.1,2.22-2.42,2.22-3.68v-2.36h6.1c-2.39-1.82-4.18-4.18-5.34-7.07l1.79-.46c.4.93.93,1.79,1.53,2.65,1.09-.76,2.32-1.69,3.08-2.32l1.59,1.03c-1.13.93-2.49,1.83-3.72,2.49.53.6,1.13,1.13,1.73,1.63,1.23-.7,2.62-1.66,3.45-2.29l1.66,1.03ZM85.56,62.52c1.49.7,3.15,1.56,4.71,2.46.8-.73,1.43-1.53,1.96-2.46h-6.67Z" style="fill: url(#_新增漸層色票_1); stroke-width: 0px;"/>
          <path d="M117.27,60.67h13.47v2.02h-13.47v7.36h-2.46v-7.36h-13.3v-2.02h13.3v-1.99h-8.23v-4.35h-5.11v-1.92h5.11v-2.12h2.29v2.12h6v-2.36h2.29v2.36h6.14v-2.12h2.39v2.12h5.01v1.92h-5.01v4.35h-8.43v1.99ZM130.81,42.52v2.02h-8.56c2.39,1.36,5.17,3.08,6.77,4.21l-1.62,1.46c-.63-.5-1.43-1.06-2.32-1.66-18.11.83-19.8.89-20.93,1.29-.1-.5-.46-1.66-.73-2.29.83-.1,1.79-.6,3.05-1.33.53-.3,1.53-.9,2.75-1.69h-7.63v-2.02h10.52c1.23-.9,2.42-1.89,3.52-2.92l2.72.83c-.86.73-1.73,1.43-2.62,2.09h15.09ZM110.9,64.08c-1.59,2.16-4.21,4.21-6.54,5.51-.43-.46-1.39-1.23-1.99-1.63,2.35-1.13,4.74-2.82,6.1-4.61l2.42.73ZM122.48,46.87c-.93-.53-1.82-1.06-2.69-1.53l1-.8h-7.9c-1.59,1.09-3.22,2.09-4.78,2.92l14.36-.6ZM108.88,56.78h6v-2.46h-6v2.46ZM117.17,54.33v2.46h6.14v-2.46h-6.14ZM123.11,63.12c2.35,1.33,5.34,3.35,6.87,4.71l-1.92,1.53c-1.46-1.36-4.38-3.48-6.77-4.91l1.82-1.33Z" style="fill: url(#_新增漸層色票_1); stroke-width: 0px;"/>
          <path d="M142.42,58.08v12.08h-2.29v-11.34c-1.96.6-3.85,1.19-5.47,1.69l-.66-2.36c1.69-.46,3.81-1.03,6.14-1.76v-7.4h-3.02c-.4,1.86-.86,3.55-1.46,4.91-.43-.3-1.36-.9-1.89-1.09,1.26-2.82,1.89-7,2.29-11.05l2.16.37c-.17,1.49-.4,3.02-.63,4.48h2.55v-6.73h2.29v6.73h3.38v2.39h-3.38v6.77l3.85-1.19.33,2.19-4.18,1.33ZM164.12,45.37s0,.96-.03,1.26c-.73,15.03-1.46,20.17-2.79,21.83-.63.86-1.29,1.16-2.29,1.26-.9.13-2.32.1-3.78,0-.03-.73-.27-1.76-.7-2.42,1.49.13,2.82.17,3.48.17.53,0,.86-.13,1.23-.56,1.06-1.16,1.79-6.07,2.45-19.21h-1.59c-1.66,8.69-5.31,17.52-10.81,21.89-.46-.53-1.33-1.13-2.06-1.49,5.44-3.92,9.02-12.08,10.75-20.4h-2.72c-1.49,5.67-4.54,11.88-8.16,15.03-.46-.5-1.26-1.06-1.96-1.43,3.52-2.75,6.47-8.29,7.99-13.6h-2.85c-1.09,2.42-2.36,4.61-3.78,6.3-.4-.4-1.39-1.09-1.89-1.43,2.72-2.95,4.71-7.73,5.81-12.74l2.26.46c-.4,1.76-.9,3.45-1.46,5.08h12.9Z" style="fill: url(#_新增漸層色票_1); stroke-width: 0px;"/>
          <path d="M173.34,54.73c-1.29-1.13-3.88-2.69-6-3.65l1.33-1.86c2.06.9,4.74,2.35,6.04,3.45l-1.36,2.06ZM176.23,59.04c-1.76,3.48-4.08,7.6-6,10.65l-2.06-1.66c1.76-2.52,4.34-6.87,6.27-10.62l1.79,1.63ZM174.37,46.24c-1.09-1.26-3.55-3.09-5.57-4.25l1.46-1.73c1.99,1.06,4.44,2.79,5.61,4.05l-1.49,1.92ZM179.35,55.42h2.26v3.48c0,3.62-.53,7.89-4.74,11.11-.36-.53-1.19-1.29-1.76-1.62,3.81-2.85,4.25-6.54,4.25-9.55v-3.42ZM195.23,55.32c-.43-.66-1.06-1.53-1.73-2.42-13.37.89-14.93.99-15.89,1.39-.13-.5-.53-1.69-.76-2.32.66-.13,1.46-.96,2.42-2.09.53-.56,1.53-1.86,2.72-3.52h-5.64v-2.22h7.1c.9-1.33,1.72-2.79,2.49-4.21l2.42.96c-.63,1.1-1.33,2.19-2.06,3.25h10.71v2.22h-12.24c-1.36,1.89-2.75,3.68-4.18,5.21l11.34-.66c-.8-1.03-1.63-2.06-2.39-2.92l1.86-1.06c1.96,2.19,4.54,5.27,5.84,7.1l-2.02,1.29ZM185.15,55.62h2.22v13.07h-2.22v-13.07ZM195.8,67.5c.43,0,1.09-.03,1.49-.17.03.6.1,1.39.13,1.92-.33.13-.96.13-1.59.13h-2.16c-2.19,0-2.62-.86-2.62-3.15v-10.81h2.29v10.85c0,.96.1,1.23.56,1.23h1.89Z" style="fill: url(#_新增漸層色票_1); stroke-width: 0px;"/>
          <path d="M229.01,66.84c0,1.62-.37,2.46-1.53,2.85-1.19.4-3.22.43-6.2.43-.13-.7-.53-1.86-.9-2.52,2.39.1,4.68.1,5.37.07.6-.03.8-.2.8-.83v-18.91h-21.69v22.19h-2.42v-24.58h9.06c.83-1.79,1.69-4.08,2.12-5.77l3.02.53c-.73,1.76-1.59,3.65-2.42,5.24h14.79v21.3ZM211.46,63.22v2.36h-2.26v-13.27h12.87v10.91h-10.62ZM211.46,54.53v6.47h8.33v-6.47h-8.33Z" style="fill: url(#_新增漸層色票_1); stroke-width: 0px;"/>
          <path d="M244.6,41.59c-1.86,5.64-5.14,10.35-9.02,13.47-.43-.5-1.46-1.43-2.06-1.83,3.91-2.72,6.93-7.1,8.53-12.27l2.55.63ZM259.06,52.31s-.03.86-.07,1.19c-.46,10.18-.93,14-2.06,15.26-.7.83-1.39,1.06-2.59,1.2-1.06.1-3.15.03-5.21-.07-.03-.76-.33-1.76-.8-2.49,2.16.2,4.18.23,4.98.23.7,0,1.06-.07,1.39-.43.86-.83,1.33-4.15,1.72-12.51h-8.56c-.86,6.57-3.02,12.54-11.44,15.62-.3-.66-1-1.63-1.59-2.16,7.79-2.62,9.62-7.86,10.42-13.47h-6.77v-2.39h20.57ZM254.85,40.43c1.66,5.21,5.21,9.95,9.42,12.34-.53.53-1.33,1.53-1.76,2.22-4.11-2.65-7.53-7.3-9.42-12.24h-5.87v-2.32h7.63Z" style="fill: url(#_新增漸層色票_1); stroke-width: 0px;"/>
          <path d="M277.81,59.04c-.56-1.16-1.86-3.25-2.99-5.01v16.09h-2.39v-15.66c-1.23,3.71-2.85,7.3-4.54,9.52-.27-.66-.9-1.63-1.29-2.22,2.19-2.75,4.48-7.93,5.57-12.47h-4.68v-2.36h4.94v-7.1h2.39v7.1h4.84v2.36h-4.84v1.69c1.16,1.39,3.91,5.11,4.58,6.1l-1.59,1.96ZM296.98,53.47h-4.81v16.69h-2.42v-16.69h-6.04v.17c0,4.94-.46,11.88-3.58,16.45-.43-.4-1.46-1.06-2.02-1.26,2.99-4.41,3.28-10.58,3.28-15.19v-10.15c4.18-.76,8.92-2.02,11.61-3.25l2.09,1.92c-3.08,1.26-7.4,2.32-11.38,3.05v5.91h13.27v2.36Z" style="fill: url(#_新增漸層色票_1); stroke-width: 0px;"/>
          <path d="M310.62,61.76c-1.99,2.62-4.91,5.31-7.4,7.03-.46-.43-1.49-1.23-2.12-1.59,2.59-1.59,5.37-3.98,7.07-6.3l2.46.86ZM316.72,59.07v8.06c0,1.39-.3,2.09-1.39,2.46-1.03.4-2.72.43-5.14.43-.1-.7-.53-1.76-.93-2.42,1.99.1,3.78.1,4.31.03.56-.03.66-.13.66-.53v-7.83c-9.02.66-10.35.86-11.28,1.23-.1-.53-.46-1.69-.73-2.36,1.09-.13,2.55-.66,4.54-1.59,1.26-.53,4.08-1.96,7.3-3.81-7.46.43-8.59.6-9.29.83-.13-.46-.46-1.69-.76-2.32.76-.07,1.59-.43,2.69-1.03,1.19-.56,4.88-2.75,7.66-5.21-3.95,1.03-8.13,1.89-12.08,2.59-.13-.63-.43-1.49-.73-2.06,7.43-1.36,15.92-3.42,20.63-5.64l1.82,1.92c-2.65,1.19-5.97,2.22-9.55,3.18l2.09,1.33c-2.22,1.72-4.64,3.32-7,4.58l8.13-.43c1.33-.8,2.59-1.69,3.78-2.59l1.92,1.62c-4.51,3.19-9.19,5.77-13.8,7.86l14.13-.93c-1.06-1.16-2.16-2.29-3.15-3.25l1.99-1.03c2.52,2.26,5.37,5.31,6.77,7.26l-2.09,1.29c-.46-.66-1.09-1.46-1.76-2.32l-8.76.66ZM321.63,60.6c2.62,1.92,5.91,4.71,7.6,6.47l-2.06,1.46c-1.59-1.76-4.81-4.64-7.46-6.67l1.92-1.26Z" style="fill: url(#_新增漸層色票_1); stroke-width: 0px;"/>
          <path d="M336.5,61.4c-.33,2.82-.96,5.94-1.66,7.99-.4-.23-1.39-.56-1.89-.73.76-2.06,1.26-4.98,1.59-7.63l1.96.37ZM343.27,59.47c-.1-.5-.23-1.06-.4-1.69-7.3,1.19-8.29,1.46-8.92,1.82-.1-.5-.5-1.66-.76-2.29.7-.17,1.46-1,2.45-2.22.53-.6,1.56-1.96,2.72-3.72-3.48.43-4.18.56-4.61.8-.13-.5-.53-1.66-.76-2.29.53-.13,1.13-.8,1.79-1.79.76-.96,3.12-4.78,4.51-8.36l2.26.96c-1.53,3.18-3.42,6.44-5.31,8.99l3.48-.33c.93-1.49,1.86-3.12,2.65-4.74l2.06,1.26c-2.16,3.88-4.78,7.79-7.53,10.88l5.41-.76c-.4-1.09-.8-2.19-1.26-3.15l1.79-.66c1.03,2.12,1.99,4.88,2.35,6.57l-1.92.73ZM339.91,60.86c.4,2.22.8,5.08.9,6.97l-1.96.46c-.07-1.89-.4-4.81-.8-7.03l1.86-.4ZM343.46,66.6c-.3-1.59-1.06-4.11-1.76-6l1.72-.56c.76,1.92,1.56,4.35,1.89,5.97l-1.86.6ZM360.45,67.37c.7,0,.83-.63.9-4.38.56.43,1.49.76,2.19.96-.23,4.45-.83,5.61-2.85,5.61h-2.82c-2.32,0-2.89-.73-2.89-3.19v-11.61l-3.12.36c-.27,7.83-1.26,12.44-7.1,15.16-.27-.63-.93-1.49-1.49-1.92,5.21-2.22,6-6.1,6.2-12.94-2.16.3-2.79.46-3.25.66-.17-.53-.53-1.76-.86-2.46.66-.17,1.39-1.06,2.29-2.42.53-.73,1.63-2.55,2.85-4.84h-4.91v-2.32h6.04c.66-1.36,1.29-2.79,1.83-4.18l2.65.8c-.5,1.13-1.06,2.29-1.62,3.38h8.56v2.32h-9.75c-1.36,2.49-2.79,4.84-4.25,6.8l9.75-.93c-.73-1.26-1.49-2.55-2.22-3.68l2.02-.86c1.69,2.49,3.75,5.87,4.64,7.96l-2.19,1.06c-.3-.73-.7-1.59-1.19-2.52l-2.52.27v11.88c0,.86.1,1.03.83,1.03h2.29Z" style="fill: url(#_新增漸層色票_1); stroke-width: 0px;"/>
        </g>
      </g>
      <g>
        <g>
          <circle cx="65.49" cy="16.15" r="16.15" transform="translate(32.47 74.97) rotate(-74.54)" style="fill: #fff; stroke-width: 0px;"/>
          <g>
            <circle cx="65.49" cy="16.15" r="15.18" style="fill: #fff; stroke-width: 0px;"/>
            <g style="clip-path: url(#clippath);">
              <path d="M52.73,16.89c1.92-.74,4.47-.36,7.27.28l6.05-10.11c.05-.11.11-.21.17-.31.48-.74,1.3-1.19,2.19-1.19s1.71.44,2.19,1.19c.06.1.12.2.17.31l6.27,10.47c1.52-1.58-.37-3.73-2.78-4.64,0,0,6.56.93,6.28,5.12.07-.61.12-1.23.12-1.86,0-8.38-6.8-15.18-15.18-15.18s-15.18,6.8-15.18,15.18c0,1.51.22,2.97.64,4.35-.46-2.61,1.79-3.61,1.79-3.61Z" style="fill: #2878b9; stroke-width: 0px;"/>
              <path d="M57.64,20.93c.24-.38.45-.72.64-1.03-7.29-3.13-7.38-.09-7.16,1.15.16.48.35.94.56,1.4.69,1.05,2.84,3.46,5.96-1.52Z" style="fill: #9cc217; stroke-width: 0px;"/>
              <path d="M79.81,20.32c-1.88,3.49-9.92,5.4-18.88.83-.3-.16-.6-.3-.88-.44-.13.23-.28.49-.45.77-3.77,6.82-6.93,2.63-7.87,1.07,2.42,5.18,7.67,8.77,13.76,8.77,7.56,0,13.83-5.53,14.98-12.76-.11.54-.32,1.12-.66,1.76Z" style="fill: #9cc217; stroke-width: 0px;"/>
              <path d="M64.68,18.32l3.75-6.43,4.23,7.26c-2.51.3-5.26-.2-7.98-.84Z" style="fill: #9cc217; stroke-width: 0px;"/>
              <path d="M68.43,10.04l-4.69,8.05c-.62-.15-1.23-.31-1.84-.46l5.87-9.8.03-.04.02-.04s.04-.09.07-.13c.14-.21.34-.34.54-.34s.4.13.54.34c.03.04.05.09.07.13l.02.04,6.41,10.71c-.5.19-1.1.36-1.8.5l-5.22-8.96Z" style="fill: #9cc217; stroke-width: 0px;"/>
              <path d="M65.48,31.33c-.21,0-.42,0-.63-.02.21,0,.42.02.63.02Z" style="fill: #9cc217; stroke-width: 0px;"/>
            </g>
          </g>
        </g>
        <g>
          <path d="M94.6,22.13c-2.27.71-4.64,1.47-6.52,2.03l-.37-1.66c.81-.2,1.76-.46,2.81-.78v-6.87h-2.27v-1.61h2.27v-5.42h-2.52v-1.64h6.52v1.64h-2.39v5.42h2.12v1.61h-2.12v6.4l2.27-.71.2,1.59ZM109.72,20.98c-1.05.66-2.3,1.37-3.4,1.88,1.12,1.05,2.54,1.88,4.18,2.32-.39.32-.88.95-1.1,1.39-3.35-1.1-5.72-3.62-6.91-6.87-.85.76-1.88,1.49-2.98,2.13v2.81l4.08-.93c-.05.39-.05,1.03,0,1.34-4.67,1.2-5.35,1.42-5.77,1.66-.1-.39-.42-1.03-.64-1.34.32-.17.81-.54.81-1.51v-1.22c-.88.42-1.78.81-2.64,1.08-.22-.39-.68-.95-1.05-1.25,2.13-.56,4.59-1.66,6.28-2.91h-3.64v-5.01h11.51v5.01h-4.47c.37.83.85,1.66,1.44,2.37,1.07-.61,2.3-1.44,3.05-2.03l1.25,1.08ZM109.99,13.21h-14.68v-1.49h14.68v1.49ZM109.16,10.5h-12.83v-5.13h12.83v5.13ZM100.17,6.69h-2.32v2.49h2.32v-2.49ZM98.61,18.22h8.11v-2.3h-8.11v2.3ZM103.83,6.69h-2.37v2.49h2.37v-2.49ZM107.6,6.69h-2.47v2.49h2.47v-2.49Z" style="fill: #fff; stroke-width: 0px;"/>
          <path d="M120.01,20.76c-2.44,1-5.08,2.03-7.13,2.81l-.59-1.83c.85-.27,1.91-.64,3.05-1.05v-8.55h-2.66v-1.71h2.66v-5.64h1.76v5.64h2.37v1.71h-2.37v7.92l2.57-.95.34,1.66ZM131.71,25.06c.34,0,.71-.02.83-.1.2-.05.37-.24.44-.51.05-.34.07-1.1.1-2.08.37.32.98.63,1.47.78-.05.95-.15,1.95-.29,2.37-.2.37-.46.64-.9.76-.37.12-1.03.2-1.49.2h-1.64c-.56,0-1.29-.12-1.66-.42-.44-.29-.61-.68-.61-1.98v-3.62h-2.17c-.39,3.52-1.64,5.38-6.08,6.42-.17-.42-.64-1.1-.95-1.42,3.96-.81,5.01-2.17,5.33-5.01h-2.54v-6.91h11.09v6.91h-2.96v3.79c0,.37.02.61.22.68.15.1.37.12.66.12h1.17ZM133.91,12.28h-13.56v-1.56h3.44c-.12-.66-.44-1.61-.76-2.34l1.49-.32c.32.76.73,1.78.88,2.42l-.9.24h4.06c.37-.78.81-1.86,1.03-2.59l1.69.37c-.37.78-.76,1.56-1.07,2.22h3.71v1.56ZM133.28,7.84h-12.19v-1.54h5.28c-.2-.54-.46-1.1-.68-1.61l1.69-.32c.29.59.61,1.32.83,1.93h5.08v1.54ZM123.21,16.39h7.67v-1.59h-7.67v1.59ZM123.21,19.22h7.67v-1.64h-7.67v1.64Z" style="fill: #fff; stroke-width: 0px;"/>
          <path d="M148.21,9.57c-.56,1.42-1.22,3.08-1.83,4.35h3.44v1.66h-12.68v-1.66h7.48c.66-1.37,1.39-3.37,1.78-4.74l1.81.39ZM149.29,9.03h-11.43v-1.66h5.06c-.27-.81-.66-1.76-1-2.52l1.59-.46c.51.95,1,2.15,1.29,2.98h4.5v1.66ZM138.54,17.8h10.16v8.65h-1.78v-.98h-6.67v1.17h-1.71v-8.84ZM140.86,13.82c-.22-1.12-.85-2.86-1.51-4.18l1.54-.39c.73,1.27,1.39,2.98,1.61,4.13l-1.64.44ZM140.25,19.44v4.42h6.67v-4.42h-6.67ZM158.89,6.54c-.88,2.22-2,5.01-3.03,7.26,2.17,2.3,2.71,4.18,2.71,5.89,0,1.39-.32,2.59-1.1,3.1-.42.29-.95.46-1.51.51-.61.07-1.39.07-2.08.05-.02-.49-.2-1.22-.49-1.73.71.07,1.39.07,1.88.05.37-.02.71-.1.98-.24.49-.32.66-1.08.64-1.91,0-1.54-.61-3.3-2.79-5.52.9-2.05,1.86-4.64,2.52-6.52h-3.88v19.3h-1.64V5.81h6.25l.29-.1,1.25.83Z" style="fill: #fff; stroke-width: 0px;"/>
          <path d="M168.49,11.21h-6.99v-1.47h6.99v1.47ZM170.42,23.81c-1.95,1.17-5.03,2.32-7.45,2.98-.32-.37-.93-1.05-1.34-1.37,2.49-.51,5.42-1.39,7.16-2.34l1.64.73ZM167.88,7.37h-5.84v-1.42h5.84v1.42ZM164.71,13.11h15.81v9.8h-15.81v-9.8ZM166.47,16h12.24v-1.66h-12.24v1.66ZM166.47,18.83h12.24v-1.66h-12.24v1.66ZM166.47,21.71h12.24v-1.71h-12.24v1.71ZM172.33,7.57c-.54.93-1.17,1.78-1.83,2.44-.29-.27-.98-.73-1.37-.93,1.27-1.15,2.27-2.86,2.81-4.64l1.64.37c-.15.46-.34.9-.51,1.34h8.18l.29-.07,1.22.42c-.61,1.25-1.39,2.66-2.05,3.52l-1.44-.51c.37-.51.81-1.22,1.15-1.93h-3.88v.32c0,.24-.02.51-.07.81,1.29,1.47,3.96,2.42,7.16,2.69-.34.34-.81,1-1.03,1.44-2.79-.39-5.13-1.37-6.65-2.86-.81,1.2-2.74,2.32-7.04,2.98-.2-.39-.66-1.05-.98-1.34,6.33-.86,6.91-2.52,6.91-3.79v-.24h-2.52ZM175.99,23.06c2.61.81,5.47,1.86,7.18,2.64l-1.59,1.05c-1.56-.78-4.2-1.83-6.84-2.71l1.25-.98Z" style="fill: #fff; stroke-width: 0px;"/>
          <path d="M189.78,15.19c-.93-.71-2.74-1.86-4.1-2.61l1.05-1.27c1.32.73,3.18,1.76,4.13,2.42l-1.08,1.47ZM191.32,18.63c-1,2.56-2.37,5.57-3.52,7.82l-1.61-1c1.08-1.88,2.59-5.08,3.71-7.82l1.42,1ZM190.93,8.81c-.93-.73-2.74-1.93-4.06-2.79l1.05-1.25c1.32.76,3.15,1.88,4.08,2.59l-1.08,1.44ZM194.74,12.36c0,4.25-.42,10.28-3.3,14.36-.29-.32-1.07-.78-1.49-.95,2.76-3.91,3-9.4,3-13.41v-6.67h14.85v1.66h-13.07v5.01ZM198.62,20.34c-.81,1.78-2.03,3.74-3.08,5.01-.34-.27-1.03-.68-1.47-.93,1.12-1.17,2.2-2.91,2.91-4.52l1.64.44ZM202.24,18.54v6.38c0,.9-.15,1.37-.83,1.64-.66.27-1.69.27-3.32.24-.07-.46-.29-1.1-.51-1.56,1.17.05,2.25.02,2.52.02.32-.02.42-.1.42-.37v-6.35h-4.37v-8.38h3.69c.27-.78.56-1.78.71-2.47l2.03.42c-.34.71-.68,1.42-1,2.05h5.33v8.38h-4.64ZM197.77,13.68h7.43v-2.12h-7.43v2.12ZM197.77,17.14h7.43v-2.15h-7.43v2.15ZM205.44,19.71c.95,1.49,2.17,3.49,2.79,4.67l-1.66.73c-.54-1.22-1.73-3.25-2.69-4.79l1.56-.61Z" style="fill: #fff; stroke-width: 0px;"/>
          <path d="M216.39,10.3c-.49.93-1.08,1.88-1.71,2.79v13.68h-1.69v-11.51c-.73.9-1.49,1.69-2.2,2.35-.17-.39-.66-1.27-.98-1.66,1.83-1.56,3.79-3.91,5.01-6.25l1.56.61ZM215.9,5.1c-1.2,1.95-3.1,4.15-4.81,5.59-.2-.37-.68-1.05-.98-1.37,1.54-1.25,3.27-3.25,4.13-4.84l1.66.61ZM226.7,11.62v2.64h4.28v12.48h-1.78v-1.12h-6.69v1.12h-1.71v-12.48h4.15v-2.64h-5.18v2.81c0,4.05-.32,8.79-2.39,12.38-.32-.27-.98-.61-1.37-.78,1.88-3.42,2.13-7.96,2.13-11.6v-7.96c4.03-.34,8.84-.95,11.51-1.64l1.42,1.29c-3,.73-7.38,1.27-11.29,1.59v2.39h5.18v-2.49h1.76v2.49h5.52v1.51h-5.52ZM229.19,15.73h-6.69v1.95h6.69v-1.95ZM229.19,18.98h-6.69v1.91h6.69v-1.91ZM229.19,24.23v-2.05h-6.69v2.05h6.69Z" style="fill: #fff; stroke-width: 0px;"/>
          <path d="M241.22,22.13c-2.27.71-4.64,1.47-6.52,2.03l-.37-1.66c.81-.2,1.76-.46,2.81-.78v-6.87h-2.27v-1.61h2.27v-5.42h-2.52v-1.64h6.52v1.64h-2.39v5.42h2.13v1.61h-2.13v6.4l2.27-.71.2,1.59ZM256.34,20.98c-1.05.66-2.3,1.37-3.4,1.88,1.12,1.05,2.54,1.88,4.18,2.32-.39.32-.88.95-1.1,1.39-3.35-1.1-5.72-3.62-6.91-6.87-.86.76-1.88,1.49-2.98,2.13v2.81l4.08-.93c-.05.39-.05,1.03,0,1.34-4.67,1.2-5.35,1.42-5.77,1.66-.1-.39-.42-1.03-.63-1.34.32-.17.81-.54.81-1.51v-1.22c-.88.42-1.78.81-2.64,1.08-.22-.39-.68-.95-1.05-1.25,2.12-.56,4.59-1.66,6.28-2.91h-3.64v-5.01h11.51v5.01h-4.47c.37.83.85,1.66,1.44,2.37,1.08-.61,2.3-1.44,3.05-2.03l1.25,1.08ZM256.61,13.21h-14.68v-1.49h14.68v1.49ZM255.78,10.5h-12.83v-5.13h12.83v5.13ZM246.79,6.69h-2.32v2.49h2.32v-2.49ZM245.22,18.22h8.11v-2.3h-8.11v2.3ZM250.45,6.69h-2.37v2.49h2.37v-2.49ZM254.21,6.69h-2.47v2.49h2.47v-2.49Z" style="fill: #fff; stroke-width: 0px;"/>
          <path d="M273.06,16.97c-1.12.59-2.27,1.15-3.47,1.64h9.19v8.09h-1.76v-.71h-10.77v.78h-1.71v-6.25c-1.54.49-3.13.93-4.69,1.32-.17-.39-.63-1.2-.9-1.56,3.57-.76,7.21-1.86,10.5-3.3h-9.99v-1.49h9.14v-1.83h-6.72v-1.47h6.72v-1.71h-7.74v-5.01h18.91v5.01h-9.41v1.71h5.47v1.25c.93-.66,1.76-1.37,2.52-2.1l1.42.9c-1.2,1.17-2.61,2.27-4.15,3.25h5.42v1.49h-7.96ZM266.46,6.79h-3.88v2.34h3.88v-2.34ZM277.01,19.98h-10.77v1.61h10.77v-1.61ZM277.01,24.62v-1.78h-10.77v1.78h10.77ZM272.15,9.13v-2.34h-4.01v2.34h4.01ZM272.49,15.48c1.08-.56,2.08-1.2,3-1.83h-5.15v1.83h2.15ZM273.84,9.13h4.13v-2.34h-4.13v2.34Z" style="fill: #fff; stroke-width: 0px;"/>
        </g>
      </g>
      <g>
        <path d="M4.55,81.34h1.67v13.21h-1.67v-13.21Z" style="fill: #fff; stroke-width: 0px;"/>
        <path d="M9.86,84.78h1.35l.14,1.4h.05c.94-.92,1.94-1.66,3.28-1.66,2.05,0,2.99,1.33,2.99,3.83v6.19h-1.64v-5.98c0-1.84-.56-2.61-1.85-2.61-1.01,0-1.69.5-2.68,1.49v7.09h-1.64v-9.78Z" style="fill: #fff; stroke-width: 0px;"/>
        <path d="M20.33,89.67c0-3.17,2-5.15,4.23-5.15,1.15,0,1.89.43,2.75,1.15l-.07-1.69v-3.76h1.62v14.33h-1.33l-.14-1.15h-.05c-.77.76-1.8,1.39-2.97,1.39-2.45,0-4.03-1.85-4.03-5.11ZM27.25,92.07v-5.13c-.85-.74-1.58-1.03-2.39-1.03-1.58,0-2.83,1.51-2.83,3.75,0,2.36.97,3.76,2.7,3.76.9,0,1.69-.45,2.52-1.35Z" style="fill: #fff; stroke-width: 0px;"/>
        <path d="M32.25,90.97v-6.19h1.64v6c0,1.82.54,2.59,1.84,2.59,1.01,0,1.71-.49,2.65-1.66v-6.93h1.64v9.78h-1.37l-.13-1.53h-.05c-.92,1.06-1.89,1.76-3.24,1.76-2.05,0-2.97-1.33-2.97-3.82Z" style="fill: #fff; stroke-width: 0px;"/>
        <path d="M42.38,93.44l.81-1.08c.85.68,1.73,1.15,2.9,1.15,1.3,0,1.93-.68,1.93-1.53,0-1.01-1.15-1.44-2.23-1.85-1.37-.5-2.86-1.17-2.86-2.83,0-1.55,1.26-2.77,3.39-2.77,1.21,0,2.27.5,3.02,1.1l-.79,1.06c-.67-.5-1.35-.87-2.21-.87-1.24,0-1.82.65-1.82,1.4,0,.94,1.01,1.28,2.11,1.69,1.42.54,2.99,1.12,2.99,2.97,0,1.58-1.26,2.9-3.56,2.9-1.39,0-2.72-.58-3.66-1.35Z" style="fill: #fff; stroke-width: 0px;"/>
        <path d="M51.98,91.53v-5.42h-1.46v-1.24l1.53-.09.2-2.75h1.37v2.75h2.65v1.33h-2.65v5.46c0,1.21.38,1.89,1.51,1.89.34,0,.79-.13,1.12-.25l.32,1.22c-.56.18-1.21.36-1.8.36-2.09,0-2.79-1.31-2.79-3.26Z" style="fill: #fff; stroke-width: 0px;"/>
        <path d="M58.65,84.78h1.35l.14,1.78h.05c.68-1.24,1.67-2.03,2.77-2.03.43,0,.74.05,1.04.22l-.31,1.44c-.32-.13-.56-.16-.95-.16-.81,0-1.82.58-2.47,2.25v6.28h-1.64v-9.78Z" style="fill: #fff; stroke-width: 0px;"/>
        <path d="M65.55,81.66c0-.63.45-1.06,1.1-1.06s1.1.43,1.1,1.06c0,.67-.45,1.1-1.1,1.1s-1.1-.43-1.1-1.1ZM65.82,84.78h1.64v9.78h-1.64v-9.78Z" style="fill: #fff; stroke-width: 0px;"/>
        <path d="M70.34,92.01c0-2.12,1.85-3.19,6.01-3.66,0-1.26-.41-2.47-2.02-2.47-1.13,0-2.16.52-2.94,1.04l-.65-1.13c.9-.58,2.29-1.28,3.85-1.28,2.38,0,3.39,1.6,3.39,4.01v6.01h-1.35l-.14-1.17h-.05c-.94.77-2.03,1.4-3.24,1.4-1.64,0-2.86-1.01-2.86-2.77ZM76.35,92.18v-2.74c-3.29.4-4.41,1.21-4.41,2.47,0,1.12.76,1.57,1.73,1.57s1.73-.45,2.68-1.3Z" style="fill: #fff; stroke-width: 0px;"/>
        <path d="M81.28,92.61v-12.39h1.64v12.5c0,.5.22.7.47.7.09,0,.16,0,.34-.04l.23,1.26c-.23.09-.5.14-.95.14-1.22,0-1.73-.79-1.73-2.18Z" style="fill: #fff; stroke-width: 0px;"/>
        <path d="M93.83,81.34h1.71l1.39,7.2c.25,1.42.52,2.85.77,4.27h.07c.31-1.42.63-2.84.95-4.27l1.82-7.2h1.53l1.84,7.2c.32,1.4.63,2.83.94,4.27h.09c.25-1.44.5-2.86.76-4.27l1.39-7.2h1.6l-2.74,13.21h-2l-2-7.96c-.23-1.04-.43-2-.65-3.01h-.07c-.22,1.01-.45,1.96-.67,3.01l-1.96,7.96h-1.98l-2.79-13.21Z" style="fill: #fff; stroke-width: 0px;"/>
        <path d="M110.06,92.01c0-2.12,1.85-3.19,6.01-3.66,0-1.26-.41-2.47-2.02-2.47-1.13,0-2.16.52-2.94,1.04l-.65-1.13c.9-.58,2.29-1.28,3.85-1.28,2.38,0,3.39,1.6,3.39,4.01v6.01h-1.35l-.14-1.17h-.05c-.94.77-2.03,1.4-3.24,1.4-1.64,0-2.86-1.01-2.86-2.77ZM116.08,92.18v-2.74c-3.29.4-4.41,1.21-4.41,2.47,0,1.12.76,1.57,1.73,1.57s1.73-.45,2.68-1.3Z" style="fill: #fff; stroke-width: 0px;"/>
        <path d="M119.91,93.44l.81-1.08c.85.68,1.73,1.15,2.9,1.15,1.3,0,1.93-.68,1.93-1.53,0-1.01-1.15-1.44-2.23-1.85-1.37-.5-2.86-1.17-2.86-2.83,0-1.55,1.26-2.77,3.39-2.77,1.21,0,2.27.5,3.02,1.1l-.79,1.06c-.67-.5-1.35-.87-2.21-.87-1.24,0-1.82.65-1.82,1.4,0,.94,1.01,1.28,2.11,1.69,1.42.54,2.99,1.12,2.99,2.97,0,1.58-1.26,2.9-3.56,2.9-1.39,0-2.72-.58-3.66-1.35Z" style="fill: #fff; stroke-width: 0px;"/>
        <path d="M129.5,91.53v-5.42h-1.46v-1.24l1.53-.09.2-2.75h1.37v2.75h2.65v1.33h-2.65v5.46c0,1.21.38,1.89,1.51,1.89.34,0,.79-.13,1.12-.25l.32,1.22c-.56.18-1.21.36-1.8.36-2.09,0-2.79-1.31-2.79-3.26Z" style="fill: #fff; stroke-width: 0px;"/>
        <path d="M135.17,89.67c0-3.17,2.14-5.15,4.41-5.15,2.48,0,3.89,1.8,3.89,4.59,0,.36-.04.7-.07.94h-6.59c.11,2.09,1.39,3.42,3.24,3.42.95,0,1.73-.29,2.45-.77l.59,1.08c-.86.56-1.91,1.01-3.24,1.01-2.59,0-4.68-1.89-4.68-5.11ZM142.03,88.86c0-1.96-.9-3.02-2.43-3.02-1.39,0-2.61,1.12-2.81,3.02h5.24Z" style="fill: #fff; stroke-width: 0px;"/>
        <path d="M150.42,81.34h4.14c2.68,0,4.61.97,4.61,3.73,0,2.05-1.19,3.28-2.99,3.71l3.38,5.78h-1.89l-3.21-5.6h-2.38v5.6h-1.67v-13.21ZM154.31,87.6c2.07,0,3.21-.83,3.21-2.54s-1.13-2.36-3.21-2.36h-2.21v4.9h2.21Z" style="fill: #fff; stroke-width: 0px;"/>
        <path d="M160.96,89.67c0-3.17,2.14-5.15,4.41-5.15,2.48,0,3.89,1.8,3.89,4.59,0,.36-.04.7-.07.94h-6.59c.11,2.09,1.39,3.42,3.24,3.42.95,0,1.73-.29,2.45-.77l.59,1.08c-.86.56-1.91,1.01-3.24,1.01-2.59,0-4.68-1.89-4.68-5.11ZM167.82,88.86c0-1.96-.9-3.02-2.43-3.02-1.39,0-2.61,1.12-2.81,3.02h5.24Z" style="fill: #fff; stroke-width: 0px;"/>
        <path d="M171.85,84.78h1.35l.14,1.12h.05c.88-.72,1.98-1.37,3.12-1.37,2.52,0,3.89,1.98,3.89,4.99,0,3.35-2,5.28-4.25,5.28-.88,0-1.82-.41-2.7-1.13l.04,1.71v3.31h-1.64v-13.9ZM178.7,89.53c0-2.16-.72-3.62-2.57-3.62-.83,0-1.67.47-2.63,1.35v5.13c.88.76,1.75,1.03,2.39,1.03,1.62,0,2.81-1.46,2.81-3.89Z" style="fill: #fff; stroke-width: 0px;"/>
        <path d="M182.46,89.67c0-3.26,2.14-5.15,4.54-5.15s4.54,1.89,4.54,5.15-2.14,5.11-4.54,5.11-4.54-1.87-4.54-5.11ZM189.84,89.67c0-2.25-1.15-3.78-2.84-3.78s-2.83,1.53-2.83,3.78,1.13,3.75,2.83,3.75,2.84-1.5,2.84-3.75Z" style="fill: #fff; stroke-width: 0px;"/>
        <path d="M194.28,84.78h1.35l.14,1.78h.05c.68-1.24,1.67-2.03,2.77-2.03.43,0,.74.05,1.04.22l-.31,1.44c-.32-.13-.56-.16-.95-.16-.81,0-1.82.58-2.47,2.25v6.28h-1.64v-9.78Z" style="fill: #fff; stroke-width: 0px;"/>
        <path d="M201.73,91.53v-5.42h-1.46v-1.24l1.53-.09.2-2.75h1.37v2.75h2.65v1.33h-2.65v5.46c0,1.21.38,1.89,1.51,1.89.34,0,.79-.13,1.12-.25l.32,1.22c-.56.18-1.21.36-1.8.36-2.09,0-2.79-1.31-2.79-3.26Z" style="fill: #fff; stroke-width: 0px;"/>
        <path d="M215.51,81.34h1.85l4.48,13.21h-1.76l-1.26-4.03h-4.83l-1.28,4.03h-1.69l4.48-13.21ZM214.41,89.19h4l-.63-2.02c-.49-1.49-.9-2.93-1.33-4.47h-.07c-.41,1.55-.85,2.97-1.31,4.47l-.65,2.02Z" style="fill: #fff; stroke-width: 0px;"/>
        <path d="M223.73,84.78h1.35l.14,1.4h.05c.94-.92,1.94-1.66,3.28-1.66,2.05,0,2.99,1.33,2.99,3.83v6.19h-1.64v-5.98c0-1.84-.56-2.61-1.85-2.61-1.01,0-1.69.5-2.68,1.49v7.09h-1.64v-9.78Z" style="fill: #fff; stroke-width: 0px;"/>
        <path d="M234.3,92.01c0-2.12,1.85-3.19,6.01-3.66,0-1.26-.42-2.47-2.02-2.47-1.13,0-2.16.52-2.93,1.04l-.65-1.13c.9-.58,2.29-1.28,3.85-1.28,2.38,0,3.38,1.6,3.38,4.01v6.01h-1.35l-.14-1.17h-.05c-.94.77-2.04,1.4-3.24,1.4-1.64,0-2.86-1.01-2.86-2.77ZM240.31,92.18v-2.74c-3.3.4-4.41,1.21-4.41,2.47,0,1.12.76,1.57,1.73,1.57s1.73-.45,2.68-1.3Z" style="fill: #fff; stroke-width: 0px;"/>
        <path d="M245.24,92.61v-12.39h1.64v12.5c0,.5.22.7.47.7.09,0,.16,0,.34-.04l.23,1.26c-.23.09-.5.14-.95.14-1.22,0-1.73-.79-1.73-2.18Z" style="fill: #fff; stroke-width: 0px;"/>
        <path d="M249.56,98.57l.32-1.31c.2.07.49.16.74.16,1.12,0,1.82-.9,2.21-2.11l.22-.74-3.92-9.79h1.71l2,5.44c.29.85.63,1.85.94,2.74h.09c.27-.88.56-1.87.83-2.74l1.75-5.44h1.6l-3.69,10.59c-.67,1.93-1.69,3.4-3.64,3.4-.47,0-.85-.07-1.15-.2Z" style="fill: #fff; stroke-width: 0px;"/>
        <path d="M259.01,93.44l.81-1.08c.85.68,1.73,1.15,2.9,1.15,1.3,0,1.93-.68,1.93-1.53,0-1.01-1.15-1.44-2.23-1.85-1.37-.5-2.86-1.17-2.86-2.83,0-1.55,1.26-2.77,3.38-2.77,1.21,0,2.27.5,3.02,1.1l-.79,1.06c-.67-.5-1.35-.87-2.21-.87-1.24,0-1.82.65-1.82,1.4,0,.94,1.01,1.28,2.11,1.69,1.42.54,2.99,1.12,2.99,2.97,0,1.58-1.26,2.9-3.57,2.9-1.39,0-2.72-.58-3.65-1.35Z" style="fill: #fff; stroke-width: 0px;"/>
        <path d="M268.44,81.66c0-.63.45-1.06,1.1-1.06s1.1.43,1.1,1.06c0,.67-.45,1.1-1.1,1.1s-1.1-.43-1.1-1.1ZM268.71,84.78h1.64v9.78h-1.64v-9.78Z" style="fill: #fff; stroke-width: 0px;"/>
        <path d="M272.74,93.44l.81-1.08c.85.68,1.73,1.15,2.9,1.15,1.3,0,1.93-.68,1.93-1.53,0-1.01-1.15-1.44-2.23-1.85-1.37-.5-2.86-1.17-2.86-2.83,0-1.55,1.26-2.77,3.38-2.77,1.21,0,2.27.5,3.02,1.1l-.79,1.06c-.67-.5-1.35-.87-2.21-.87-1.24,0-1.82.65-1.82,1.4,0,.94,1.01,1.28,2.11,1.69,1.42.54,2.99,1.12,2.99,2.97,0,1.58-1.26,2.9-3.57,2.9-1.39,0-2.72-.58-3.65-1.35Z" style="fill: #fff; stroke-width: 0px;"/>
        <path d="M282.34,91.53v-5.42h-1.46v-1.24l1.53-.09.2-2.75h1.37v2.75h2.65v1.33h-2.65v5.46c0,1.21.38,1.89,1.51,1.89.34,0,.79-.13,1.12-.25l.32,1.22c-.56.18-1.21.36-1.8.36-2.09,0-2.79-1.31-2.79-3.26Z" style="fill: #fff; stroke-width: 0px;"/>
        <path d="M287.72,93.44l.81-1.08c.85.68,1.73,1.15,2.9,1.15,1.3,0,1.93-.68,1.93-1.53,0-1.01-1.15-1.44-2.23-1.85-1.37-.5-2.86-1.17-2.86-2.83,0-1.55,1.26-2.77,3.38-2.77,1.21,0,2.27.5,3.02,1.1l-.79,1.06c-.67-.5-1.35-.87-2.21-.87-1.24,0-1.82.65-1.82,1.4,0,.94,1.01,1.28,2.11,1.69,1.42.54,2.99,1.12,2.99,2.97,0,1.58-1.26,2.9-3.57,2.9-1.39,0-2.72-.58-3.65-1.35Z" style="fill: #fff; stroke-width: 0px;"/>
        <path d="M300.82,92.82l1.01-1.13c.94.99,2.27,1.64,3.64,1.64,1.73,0,2.77-.86,2.77-2.16s-.95-1.78-2.2-2.34l-1.91-.83c-1.22-.52-2.68-1.46-2.68-3.38,0-2.03,1.76-3.51,4.16-3.51,1.57,0,2.95.67,3.89,1.64l-.88,1.06c-.81-.76-1.78-1.24-3.01-1.24-1.49,0-2.47.76-2.47,1.94,0,1.28,1.15,1.76,2.18,2.2l1.89.81c1.53.67,2.72,1.57,2.72,3.53,0,2.09-1.73,3.75-4.48,3.75-1.87,0-3.47-.76-4.63-1.96Z" style="fill: #fff; stroke-width: 0px;"/>
        <path d="M311.57,98.57l.32-1.31c.2.07.49.16.74.16,1.12,0,1.82-.9,2.21-2.11l.22-.74-3.92-9.79h1.71l2,5.44c.29.85.63,1.85.94,2.74h.09c.27-.88.56-1.87.83-2.74l1.75-5.44h1.6l-3.69,10.59c-.67,1.93-1.69,3.4-3.64,3.4-.47,0-.85-.07-1.15-.2Z" style="fill: #fff; stroke-width: 0px;"/>
        <path d="M321.02,93.44l.81-1.08c.85.68,1.73,1.15,2.9,1.15,1.3,0,1.93-.68,1.93-1.53,0-1.01-1.15-1.44-2.23-1.85-1.37-.5-2.86-1.17-2.86-2.83,0-1.55,1.26-2.77,3.38-2.77,1.21,0,2.27.5,3.02,1.1l-.79,1.06c-.67-.5-1.35-.87-2.21-.87-1.24,0-1.82.65-1.82,1.4,0,.94,1.01,1.28,2.11,1.69,1.42.54,2.99,1.12,2.99,2.97,0,1.58-1.26,2.9-3.57,2.9-1.39,0-2.72-.58-3.65-1.35Z" style="fill: #fff; stroke-width: 0px;"/>
        <path d="M330.61,91.53v-5.42h-1.46v-1.24l1.53-.09.2-2.75h1.37v2.75h2.65v1.33h-2.65v5.46c0,1.21.38,1.89,1.51,1.89.34,0,.79-.13,1.12-.25l.32,1.22c-.56.18-1.21.36-1.8.36-2.09,0-2.79-1.31-2.79-3.26Z" style="fill: #fff; stroke-width: 0px;"/>
        <path d="M336.28,89.67c0-3.17,2.14-5.15,4.41-5.15,2.48,0,3.89,1.8,3.89,4.59,0,.36-.04.7-.07.94h-6.59c.11,2.09,1.39,3.42,3.24,3.42.95,0,1.73-.29,2.45-.77l.59,1.08c-.86.56-1.91,1.01-3.24,1.01-2.59,0-4.68-1.89-4.68-5.11ZM343.14,88.86c0-1.96-.9-3.02-2.43-3.02-1.39,0-2.61,1.12-2.81,3.02h5.24Z" style="fill: #fff; stroke-width: 0px;"/>
        <path d="M347.17,84.78h1.35l.14,1.42h.05c.85-.94,1.87-1.67,3.04-1.67,1.49,0,2.3.72,2.7,1.87,1.01-1.1,2.04-1.87,3.22-1.87,2.02,0,2.97,1.33,2.97,3.83v6.19h-1.64v-5.98c0-1.84-.58-2.61-1.82-2.61-.76,0-1.55.49-2.47,1.49v7.09h-1.64v-5.98c0-1.84-.58-2.61-1.82-2.61-.74,0-1.57.49-2.47,1.49v7.09h-1.64v-9.78Z" style="fill: #fff; stroke-width: 0px;"/>
      </g>
    </g>
  </g>
</svg>